<?xml version="1.0" encoding="UTF-8"?>
<svg id="Camada_1" data-name="Camada 1" xmlns="http://www.w3.org/2000/svg" viewBox="0 0 375 355.66">
  <defs>
    <style>
      .cls-1 {
        fill: #09f;
      }
    </style>
  </defs>
  <path class="cls-1" d="m374.99,166.54v-.09l-.03-2.43-.1-3.26v-.02h0c-.02-.75-.06-1.52-.1-2.28-.04-.72-.07-1.44-.11-2.18l.21,4.47.13,5.45-.06-.79c-.02-.49-.05-.92-.07-1.38.01.4.02.75.04,1.16l-.52-1.82c.01.1.01.21.01.33-.03-1.04-.11-2.08-.19-2.27,0-.01-.02-.01-.03-.02-.13.19-.09,1.98-.08,2.19.02.86.09,2.19.19,2.34.1-.03.13-.64.13-1.38,0,.58.34,1.31.5,1.87l-.12,7.54c-.23-.8-.46-1.9-.86-2.62l.04-5.64-.39-.52c-.32-6.85-.83-15.98-1.55-22.81l.46.54c-3.28-20.48-3.4-20.86-9.81-40.93l.39.51c3.74,11.77,7.13,22.44,9.2,36.76-1.39-10.4-3.91-21.93-9.06-36.57l.66,1.38-.44-1.2-.65-1.33-5.33-12.89.46.84-.55-1.18-.44-.8c-3.14-6.07-7.42-14.13-10.94-20l-1.11-1.73-.76-1.15c.98,1.62,2,3.37,3.07,5.2-.38-.6-.73-1.11-.91-1.28-.01-.01-.02-.02-.04-.03-.02.09.24.6.53,1.09h-.01c-.75-.57-1.86-1.25-2.78-1.48-2.53-.6-4.35-1.04-9.51-.55l-4.31-6.7c6.66-.3,11.24-.2,13.9,3.65l-.65-.98c-2.47-2.44-4.81-4.75-13.97-3.76l-6.23-8.62c9.66-.39,10.73.59,13.9,3.51l-.8-1.05c-3.58-3.12-4.89-3.93-13.89-3.49-3.14-3.74-7.22-8.85-10.53-12.46,1.67-.07,3.9-.27,5.56-.18-.12-.12-.25-.24-.42-.41.96.98,1.91,1.66,2.1,1.5.38-.34-2.49-3.33-3.32-3.45.03,0,.08.02.16.05-2.44-2.43-5.71-5.66-8.15-8.09q-5.97.01-9.94.78c-.71-.59-1.53-1.05-2.12-.98-.61.2.17,1.24.93,1.91,1.03.92,2.2,1.44,2.55,1.19-.03.03-.07.05-.1.07,2.08,2.18,4.84,5.06,6.91,7.22l-4.02.95c3.49,4.04,8.23,9.35,11.54,13.53l-5.56,1.56c-12.57-14.95-18.32-21.78-35.56-35.36,11.53-3.47,19.54-5.46,25.71-1.82l-.58-.43-.47-.34c-4.1-1.93-7.98-3.75-25.61,1.86l-6.08-4.37c8.75-2.66,18.65-5.68,25.03-2.11l-1.08-.71c-4.14-1.72-8.05-3.35-24.93,2.16-5.16-3.2-12.04-7.46-17.37-10.35l-.02.02c-.08.04-.2.1-.29.14,5.19,3.03,12.1,7.09,17.13,10.37-8.98,3.31-9.52,3.51-16.3,6.46l-9.95-6.6c-10.45,4.8-10.85,4.98-18.03,8.58.29.15.58.3.9.59,10.55-5.1,12.45-6.02,17.46-8.26l8.95,6c-10.88,4.98-11.31,5.19-19.2,9.12l-7.23-5.32h-.02c.21-.11.38-.26.44-.48.36-1.09-2.22-2.54-3.85-1.81-1.01.59-.29,1.53.54,1.99.63.37,1.36.52,1.98.5-.05,0-.06.01-.11.01,2.24,1.65,5.23,3.85,7.47,5.5-4.58,2.35-10.68,5.5-15.24,7.91l-4.02-3.28c3.42-1.82,8-4.2,11.42-6-13.35-9.88-20.49-13.25-33.46-19.39-10.25,5.46-13.31,7.14-24.26,13.25.48.18.52.22.84.47,11.82-6.61,13.87-7.7,23.68-12.94,15.65,7.51,15.95,7.71,31.49,18.35-3.18,1.65-7.42,3.9-10.6,5.56l-9.93-7.26c-.07.08-.16.16-.28.23.21-.13.38-.29.46-.5.41-1.13-2.03-2.44-3.75-1.63-.78.47-.62,1.11-.12,1.59-.03-.02-.06-.04-.09-.07-4.5,2.47-10.5,5.77-14.98,8.27-4.64-3.33-11.08-7.36-15.96-10.3-.02.01-.04.01-.05.02.18-.12.34-.27.41-.46.39-1.02-1.92-2.02-3.54-1.19-1.03.65-.36,1.43.42,1.76.84.35,1.85.31,2.5-.01-.1.05-.2.1-.3.14,4.82,2.97,11.07,7.23,15.71,10.5-34.76,19.66-68.66,40.8-103.66,60.07-1.19-3.95-2.8-9.19-3.95-13.13-28.56,15.31-55.12,27.79-56.12,15.5l2.22-5.29c.1,2.39.1,2.43.64,3.28l4.1-9.9c-.31-1.9-.45-2.77.82-6.17.46-.84.87-1.65.96-1.82,0-.01-.01-.02-.01-.02-.13.19-.63,1.07-1.12,1.98-.22.42-1.05,1.97-1.04,2.08.06-.09.35-.59.67-1.21h0c-.06.16-1.54,3.65-.8,6.12l-3.22,7.73c-.3-.92-.49-2.21-.51-3.17l.87-1.94h0c.22-.27,1.78-3.59,1.9-4.08,0-.01-.01-.02-.01-.03-.12.13-.66,1.18-1.08,2.09-.22.49-.76,1.68-.8,1.95v-.07c-.26.58-.61,1.34-.86,1.91.17-.89.4-2.09.66-2.95l3.18-6.35h-.01c.02-.06.05-.12.07-.18,0,.01.01-.02.02-.03l-3.72,7.45c-.23.95-.57,2.21-.7,3.17l-2.23,5.29q.39-2.93,1.06-4.79c-.2.45-.39.91-.58,1.35-.38,1.35-.77,3.19-.94,4.59l-2.67,7.08c.06-.98.14-2.29.33-3.26-.17.51-.33.97-.49,1.44-.1.91-.26,2.09-.24,2.98l-2.09,6.39v.02c-.15.16-.51,1.28-.72,2.03-.06.19-.57,1.93-.51,2.28.09-.03.31-.61.52-1.34,0,.04.17,1.9,2.01,3.19.01-.03.02-.05.02-.08-.21,1.02-.26,1.79-.12,1.8.38.04,1.31-3.94,1.02-4.29-.15-.04-.42.68-.64,1.48.01-.03.01-.05.02-.08q-1.69-1.75-1.98-3.13s-.02.07-.03.1c.23-.82.41-1.59.44-1.86,0,.01,0,.02.01.03.62-1.91,1.45-4.46,2.08-6.36,1.07,4.32,3.29,13.35,56.16-14.85l1.61,6.22c-9.46,4.96-11.43,6-19.46,9.87.81,6.04,1.95,14.08,2.96,20.08-12.62,5.87-36.13,16.79-45.69,13.05.98-6.1,2.31-14.24,3.59-20.28h-.01c-1.24,6.04-2.89,14.11-3.77,20.2-2.58-1.67-3.55-2.3-3.78-6.58-.02.07-.03.15-.04.22.17-.95.33-1.88.36-2.19v.04c1.92-7.91,3.03-12.5,3.99-16.01-1.75,5.52-2.5,8.7-3.85,15.19-.04.22-.09.45-.13.67-.3,1.5-.57,2.99-.83,4.49.05-.07.16-.64.31-1.34,0,.01-.01.03-.01.04-.04.19-.33,1.95,1.19,4.58.51.87,1.76,1.61,2.66,2.1l-.78,7.51c-2.85-1.67-3.91-2.29-4.3-6.73-.06.41-.12.82-.17,1.24.56,3.59.77,4.94,4.37,6.69l-.62,11.96c-.86-.34-1.95-.9-2.78-1.3.03-.99-.02-1.97-.17-2.2-.01,0-.02-.01-.03-.02-.19.06-.33,1.42-.35,2.37-.02.7,0,2.07.2,2.18.13-.05.23-.65.3-1.41.75.62,1.94,1.15,2.8,1.6l-.03,3.26c-.84-.29-1.86-.97-2.64-1.4-.55,25.01,3.1,40.51,6.98,56.92l-.57-.42c-.79-2.93-1.49-5.74-2.11-8.43.61,2.74,1.25,5.47,1.9,8.27l-1.4-1.51s.01.01.01.02c-.25-.87-.53-1.72-.68-1.98,0-.01-.01-.02-.02-.03-.01.01-.02.01-.03.01-.01.15.09.64.18,1.02.23.81.47,1.64.7,2.45.13.39.21.59.26.72-.01-.03-.01-.04-.03-.08.27.94.63,2.2.92,3.13.59,1.84,1.2,3.67,1.84,5.5l-2.59-8.35c.03-.09-.08-.63-.25-1.3.01,0,.01.01.01.01.15.62.99,1.12,1.41,1.58,1.21,4.27,3.19,9.86,4.56,14.08l-1.56-1.7c.15.41.31.8.47,1.21l1.53,1.66,3.65,8.98,1.08.77-3.68-9,2.26,1.07,3.06,7.51c1.33.3,3.1.77,4.47.92,2.51,5.16,5.81,12.06,8.58,17.09-2.05-.34-4.73-1.14-6.66-1.9.01.02.02.04.03.06-.49-.82-1.02-1.6-1.3-1.8-.01-.01-.04-.02-.06-.02-.11.14.41,1.17.94,2.08.48.82.97,1.53,1.24,1.83l-.02-.02.58,1-1.09-.84,5.8,9.25c1.15,1.68,2.34,3.35,3.56,5-2.56-3.9-6.11-8.99-8.5-12.99l.86.65,2.1,3.43.69.43c3.72,5.44,8.72,12.67,12.77,17.88h.01c-.03.13.4.69.81,1.22-.03-.04-.06-.07-.09-.11-.02-.02-.03-.04-.05-.06-.2-.19-.54-.37-.76-.53.28.35.57.68.86,1.03l.72.49s-.04-.05-.06-.07c.61.7,1.55,1.71,1.74,1.71.14-.21-2.37-3.19-3.07-3.64.04.02.08.05.16.11-3.94-5.29-9.17-12.36-12.77-17.87,1.83.76,4.44,1.35,6.38,1.74,12.51,18.14,12.76,18.48,27.58,34.01-1.93-.29-4.45-1.04-6.29-1.67l4.56,4.26.93.84,3.08,2.69,2.07.83,2.17,1.81-2.07-.83c.35.27.68.55,1.03.82l2.32.9-3.11-2.59,3.8.67c15.01,11.8,15.91,12.5,27.38,19.22h-.91s.04.02.06.04c-.9-.5-1.9-.97-2.32-1.06-.07,0-.09,0-.1.02.05.2,1.14.83,1.77,1.18.8.43,2.15,1.08,2.34.99.02-.09-.41-.39-.99-.74.02.02.05.03.08.05l1.11.1c16.14,8.15,17.83,9,31.25,13.56h.01v.02c.13.13,1.04.44,1.78.66.59.17,2.33.66,2.59.58-.04-.08-.48-.25-1.06-.44.13.04.34.01.49.02,5.75,1.64,13.52,3.38,19.36,4.69l-1.88-.04c.41.07.82.14,1.23.21l2.15.02c-6.21-1.22-14.38-3.3-20.5-4.89,2.59-.22,6.04-.66,8.61-1.14,17.93,4.73,19,5.02,34.86,6.73l-3.06.69c15.2.67,18.85.82,28.79-.17-8.64.83-12.74.69-27.25.18l2.68-.61c5.63.19,13.13.48,18.76.35.08.13,1.38.06,1.78.04,1.15-.07,2.54-.22,2.72-.36,0,0,0-.01-.01-.02-.1-.05-.55-.05-1.1-.03h.06s3.47-.92,9.88-3.56c1.56-.09,14.25-1.53,14.6-1.65-4.22.62-9.91,1.04-14.16,1.45,7.16-3.11,16.06-7.01,35.92-18.16l6.62-.05c-2.68,1.52-6.26,3.51-8.94,5l6.76-.75c5.42-3.05,6.95-3.95,13.39-7.71l-2.08.18c2.68-1.59,6.25-3.7,8.92-5.3l-4.31-.1c.46-.26,1.07-.63,1.53-.91h-.09c.93-.01,2.02-.38,2.15-.72.19-.49-1.73-.56-2.77.05-.08.04-.15.09-.2.15-.21.21-.08.39.27.47-.02,0-.03,0-.05-.01l-1.55.93-3.77-.39,2.31-1.36q2.76.3,3.28.07l-2.76-.38c2.28-1.35,5.33-3.16,7.61-4.53,9.22,1.59,9.58,1.65,14.83,1.15,6.06-3.81,12.1-7.66,18.18-11.41-3.15-3.33-5.4-5.93-11.57-17.28l5.17-3.08c3.53,8.59,5.06,12.26,7.32,16.93.04-.02.08-.06.12-.09-.3.19-.4.56-.21.81.23.34.82.25.97-.24.02-.09.01-.17,0-.25,0,.04.02.06.02.11,0,.01-.01.03-.01.04,1.04-.61,2.41-1.43,3.46-2.02l-.1-2.26c3.5-1.99,5.26-2.78,6.67-3.41l.65-1.63c1.23-.46,2.76-1.03,3.32-.73,6.37-11.12,10.97-19.15,15.61-42.79l-.02.03c-.05.03-.12.07-.18.1.13-.03.27-.17.42-.43.63-1.11.86-3.26.19-3.08-.34.16-.63.84-.8,1.57v-.03c-5.56,2.37-5.78,2.46-9.68,4.37.01-3.75.08-8.75-.02-12.5,2.84-1.36,6.64-3.15,9.51-4.45l-.3,4.05c1.55-.63,3.61-1.5,5.19-2.09,0-.02,0-.04.01-.05-.02.23-.02.58.05.85.12.5.42.45.73-.11.68-1.26.78-3.52.14-3.32-.33.13-.63.85-.79,1.63v-.03c-1.45.58-3.41,1.33-4.84,1.94l.22-3.06,1.93-.81v-.02c.02.15.05.27.08.36.2.56.61.44.95-.27.63-1.32.53-3.34-.14-3.15.03-.01.05-.01.08-.02.14-1.65.33-3.85.47-5.49l2.97-1.18-1.1,10.25c.05-.04.11-.09.15-.12.4-3.08.93-7.19,1.32-10.27,2.07-.71,4.83-1.63,6.93-2.23-1.28,6.91-3.2,16.09-4.92,22.91-.33.08-.76.19-1.09.27-.06.26-.11.49-.25.95l1.06-.21c-2.67,8.08-3.95,11.99-5.09,14.98,2.85-6.81,3.39-8.53,5.3-15.01l.42-.06c-.68,2.26-1.19,3.95-1.7,5.47.63-1.86,1.35-3.98,2.21-6.52l-.63.09c1.7-6.84,3.73-16.01,5-22.94l.75-.17s.01-.02.01-.03c-.03.19-.05.49-.05.77.01.43.07.67.18.74-.01,0-.01.01-.02,0,0,.01-.01-.01-.02-.01-.97,4.65-2.2,10.87-3.37,15.48.03-.02.06-.03.09-.05-.28.15-.69,1.18-.93,2.16-.14.56-.22,1.07-.21,1.36,0,.4.14.32.22.23.21-.22.52-.97.75-1.72-.03.09-.05.19-.08.28-.01.02-.02.04-.02.06.15-.01.37-.03.52-.05-3.19,9.62-5.46,16.36-8.9,23.75,3.32-6.8,5.97-13.37,9.09-23.76.67.02,1.59,0,2.25.12-2.47,6.52-5.96,15.14-8.85,21.47,2.89-6.35,6.55-14.9,8.98-21.44l.58.18c-2.76,6.96-6.7,16.14-9.94,22.89l-.14-.23c-.05.11-.11.22-.17.34.42-.82.78-1.65.74-1.77-.14.03-.75,1.2-1.1,1.88-.18.38-.79,1.62-.73,1.73.13-.06.54-.77.94-1.55-.05.1-.1.2-.15.31-.01.01-.02.04-.03.05.03.08.08.17.12.24l-2.53,4.6c-.02.49-.06,1.16-.17,1.65.68-1.12.84-1.38.73-2.52l2-3.64.11.48c3.56-7.1,7.98-16.73,11.01-24.08l.54.52c1.4-4.03,3.4-9.35,4.65-13.42l.14.1-2.55,7.69.21.26c-4.09,10.12-5.98,14.77-8.34,19.52,2.99-5.75,4.61-9.7,8.41-19.43.58,1.03.57,1.16.43,3.51l1.57-3.85c-.26,1.16-.68,2.7-1.08,3.82l-4.22,9.13,4.14-8.92-.25.6.5-1.16.23-.58s.04-.1.06-.14l.02-.07c.92-2.22,1.87-4.82,2.83-7.46-.98,2.59-1.96,5.17-2.81,7.42.37-1.13.81-2.63,1.04-3.79,1.01-2.89,2.77-6.62,3.38-9.61l-3.37,9.44.04-.96,3.62-10.62c.02.22.05.54.07.77t.01-.01c-.19.63-.44,1.49-.4,1.56.2-.23,1.3-3.77,1.33-4.3,0,0,0-.01-.01-.02-.1.13-.41,1.09-.6,1.71.01-.04.02-.08.03-.11l-.08-.75,3.09-11.45c.13,1,.21,2.34.13,3.34l-1.17,4.23c-.02.05-.09.21-.63,2.02-.65,2.19-.66,2.31-.67,2.35.05-.09.22-.62.43-1.28h0c-.13.43-.25.99-.37,1.41-.93,2.58-1.99,5.65-3.07,8.67,1.1-2.93,2.18-5.89,3-8.44l-.04.13.08-.26.3-.95.03-.09.87-2.93.34-1.24-1.14,3.94.34-1.32c-.02.07-.04.14-.07.21.25-.84.49-1.67.58-2.04v.03c.35-1.27.81-2.96,1.17-4.23l-.19.92-.68,2.5.52-1.79.33-1.19.79-3.11-.66,2.46.2-.98c.15-.7.29-1.32.44-1.97-.13.58-.26,1.14-.41,1.77.03-1.05.02-2.46-.2-3.49l-3.36,12.65c-.33-.82-1.02-1.83-1.65-2.46l-2.19,7.82-.14-.1c.4-1.51.74-2.85,1.08-4.13-.35,1.19-.72,2.49-1.19,4.06l-.7-.37,1.24-4.59c-.62-.11-1.43-.33-2.07-.36-1.4,5.34-3.27,12.47-4.93,17.74-.68-.04-1.6-.14-2.29-.1q4.26-16.95,5.59-26.04l-3.26.72-.82,6.3c-2.12.62-4.91,1.52-7,2.26l.63-12.64.95-.36v-.04c.03.14.06.26.08.34.26.8.7.61,1,0,.64-1.33.44-3.74-.28-3.6.03-.01.07-.02.12-.02-.02-4.79.03-11.19-.17-15.97,6.38-2.24,9.58-3.36,14.3-3.94l-.93,12.54c1.4-.01,3.29.08,4.67.35-1.79,9.74-2.63,14.35-3.46,17.96,2.19-8.53,2.5-10.49,3.63-17.9.59.35,1.44.75,1.93,1.23.64-4.61,1.63-10.75,2.09-15.38l1.06,1.35c.52-4.79.8-11.21,1.12-16.02.3.77.74,1.8.86,2.61-.23,2.9-.47,6.37-.74,9.71.32-3.28.63-6.66.76-9.5l.04.77c-.89,10.65-1.32,15.85-2.15,21.08.99-5.79,1.37-10.49,2.15-20.84v.47s.04-1.26.04-1.26v-.43s.15-7.51.15-7.51v.14-1.27M220.4,22.98c-.22.09-.41.14-.68.16.25-.02.5-.07.68-.16ZM6.33,221.89s.02.05.03.07c-.01-.02-.02-.04-.03-.07Zm265.1,101.06c-.1-.01-.21-.02-.31-.03.09.01.19.02.31.03Zm90.31-93.61l1.9-6.67c.59.6,1.17,1.6,1.49,2.38l-4.04,11.77-.05,1.11-1.09,2.72c.19-1.55.16-1.62-.52-3.34l2.57-7.7-.26-.26-.36,1.13.18.17-2.21,6.57-.14-.17,2.17-6.57.36-1.13Zm-16.26,36.82l-.11-.38c3.23-6.77,7.27-15.94,10.02-22.92l.48.25c-2.89,7.01-7.01,16.26-10.39,23.04Zm15.56-35.96l-4.19,12.31-.49-.43,4-12.25.68.37Zm-1.26-5.28l1.7.31-.94,3.44-.46-.14c.2-.79.31-1.49.12-1.59-.25.03-.69,1.4-.93,2.37-.23.93-.37,1.87-.16,1.78.13-.06.48-.93.76-1.85-.03.11-.05.22-.09.34-.01.02-.01.05-.02.07.13.04.32.1.46.14l-3.97,12.24-.49-.25,3.39-10.71-3.51,10.67-.59-.18c1.46-4.97,3.48-11.59,4.72-16.62Zm-4.72-1.82c.04-.25.07-.48.11-.66-.04.22-.08.44-.11.66Zm.1-5.98l2.61-.58c-1.37,7.52-3.49,17.48-5.34,24.89l-.54.05s-.02.07-.03.1c.19-.76.26-1.41.05-1.44,0-.01.01-.01.01-.01.02.01.04.04.06.05,1.07-4.64,2.55-10.82,3.43-15.51l-.02.02c.57-.59,1.23-4.01.55-4-.28.1-.56.8-.74,1.61.02-.06.03-.12.04-.17-.23.06-.55.13-.79.18l.71-5.19Zm17.05-75.59l-.34-.38c-3.48-20.29-3.62-21.08-9.75-39.78l.41.42c6.09,18.68,6.23,19.47,9.67,39.74Zm-14.9-53.11l5.33,12.9-.38-.51-2.22-5.69-.56-.59-3.14-7.24.97,1.13Zm4.8,12.21l-.4-.41-1.76-4.55.41.42,1.75,4.54Zm-5.33-13.35l-.97-1.14c-2.14-4.1-4.83-9.64-7.13-13.65h.01-.01s-.04-.12-.09-.24c2.91,5.09,5.89,10.5,8.19,15.04Zm-9.39-16.61h0c.41.66.98,1.55,1.21,1.77-.02,0-.03-.01-.04-.02,2.13,4.07,5.11,9.41,7.07,13.56-.94-.54-2.15-1.35-3.16-1.7.07.13.29.56.51,1.08.01.02.01.06.03.07.94.52,2.32,1.02,3.15,1.69l3.15,7.25c-.19-.15-.45-.36-.64-.5.01.02.02.04.03.07-.39-.87-.81-1.69-1.05-1.87-.25-.09.13,1.1.63,2.25.49,1.13,1,2.03,1.14,2.02.14,0-.01-.59-.28-1.33l.63.5,1.76,4.55-.89-.66.43,1.15.88.66c6.41,19.96,6.53,20.35,9.77,39.79l-.75-.61c-3.31-19.48-3.43-19.86-9.9-39.85l-.43-1.15-1.39-3.2,1.19,3.07.43,1.16c6.05,17.36,6.99,22.86,10.09,41.07l.93.72c.61,6.84,1.34,15.95,1.57,22.81-.59-.58-1.61-1.08-2.33-1.51l.03,10.31c-1.16-.27-2.71-.61-3.9-.68-.16-4.45-.25-10.39-.58-14.82-.01,0-.02-.01-.03,0,.45-.5.31-4.25-.5-4.4-.28.05-.41.8-.39,1.69,0-.02-.01-.03-.01-.05-1.5.17-3.5.36-4.98.62l-.24-2.1,1.44-.26-1.71-11.76c5.16-.53,5.94-.61,8.96.09l-.84-5.65s-.02-.02-.02-.01c.26-.37-.11-4.03-.86-4.41-.24-.02-.23.76-.12,1.6-.01-.03-.01-.06-.02-.09-1.49-.16-3.48-.37-4.96-.33-4.34-18.38-4.61-19.49-8.57-30.54l-.81.05c-3.15-7.72-7.68-17.9-11.36-25.39l-3.46.43-2.46-4.43,1-.15c-.03-.05-.05-.08-.08-.13.72,1.09,1.55,1.75,1.85,1.48.63-.58-1.35-3.85-2.37-3.99.02,0,.05-.01.06-.01-.31-.57-.73-1.33-1.05-1.91,5.9-.28,8.86-.43,12.26,2Zm13.95,105.89s.03-.02.04-.01c-.11-2.53-.27-5.92-.4-8.45l.83-.16-.91-10.53c1.49-.2,3.46-.53,4.95-.61,0-.03,0-.05-.01-.08.11.73.31,1.39.52,1.62.19,4.45.58,10.37.61,14.82l-3.08.21.07,5.35-2.08.33c.05-1.12-.17-2.3-.56-2.48Zm-5.26-26.75s.01.04.01.07l.17-.04.76,5.05,3.1-.72.25,2.11-.89.18,1.02,10.51-2.76.67c-.45-4.83-1.37-11.24-1.98-16.05-.11.1-.18.13-.27.14.11-.01.22-.06.32-.2.23-.35.32-1.01.26-1.71Zm-.07-.58c.01.05.02.11.02.16,0-.05-.01-.1-.02-.16Zm-21.79-72.32c-.67.23-.19,1.63.37,2.54.55.9,1.21,1.48,1.67,1.57-.11-.01-.2-.04-.41-.15,1,1.96,2.32,4.59,3.32,6.55l-1.67.4c-.48-.92-1.17-1.69-1.76-1.73.03-.01.05-.03.07-.03-2.59-4.77-5.97-11.2-8.78-15.85l3.43-.78,2.63,4.45,2.17-.41,2.46,4.43-1.81.34c.12.18.38.56.59,1.07l1.83-.26,3.93,7.77-2.59.51-3.16-6.28h-.14c.12,0,.24-.02.32-.12.54-.75-1.22-4.14-2.45-4Zm9.86,125.03s.07-.02.1-.04c-.36.29-.61.95-.67,1.73-.39.16-.91.39-1.3.56l-.24-3.72,1.98-.84.13,2.32Zm-2.39,2.47l-1.51.66-.19-2.45s-.04.03-.06.05c.12-.11.24-.27.35-.5.63-1.39.14-3.82-.93-3.44-.81.45-.94,1.96-.77,2.84.03.15.07.31.12.45.26.77.73,1.01,1.14.72-.11.08-.21.12-.36.13.05.73.11,1.71.16,2.44l-4.32,1.98-1-8.42-.15-1.1-1.32-8.5,7.01-3.2,1.03,8.64-6.71,3.07.15,1.1,6.67-3.05.34,3.76-.83.38c.04.31.08.54.05,1.03l.87-.29.26,3.71Zm-1.39,23.06c-3.11,1.42-7.24,3.37-10.31,4.87l-.37-4.64c3.2-1.56,7.49-3.6,10.72-5.08l-.04,4.84Zm-10.86,5.15l-6.1,3.11-.42-3.27h-.01c.17-.17.32-.41.44-.71.12-.34.17-.69.17-1.03,0,.01.01.02.01.03l5.52-2.77.39,4.63Zm-5.73,11.91l3.29-1.7c.14,3.68.41,8.59.45,12.26-1.97,1.03-4.61,2.38-6.57,3.43l-1.02-9.38c-.19.17-.23.19-.43.27.28,2.81.65,6.56.93,9.38l-2.56,1.38c.02.08.06.27.08.54-.05-.81-.51-1.44-1.2-1.12-.8.51-.92,1.67-.74,2.3.03.1.07.2.12.31.2.39.51.51.82.44-.03.01-.05.03-.07.03l.74,6.07-3.17,1.75c-.94-5.33-2.28-12.41-3.37-17.71,2.21-1.22,5.16-2.86,7.39-4.06-.01-.02,0-.03-.01-.04.02.07.05.14.08.21.47.93,1.42.66,1.83-.5.45-1.29-.12-2.82-1.16-2.35-.57.35-.85,1.1-.87,1.81,0-.01-.01-.01-.01-.02-2.23,1.22-5.21,2.85-7.44,4.09l-.93-4.09c4.01-2.2,9.37-5.12,13.41-7.27l.42,3.97Zm-5.43,32.47c-2.1,1.16-4.87,2.7-6.95,3.88l.13.63c2.05-1.15,4.79-2.7,6.86-3.82.11,3.31.24,7.72.2,11.03-1.57.85-3.65,2.02-5.21,2.89-.53-3.03-1.25-7.07-1.85-10.09l-.13-.63-.58-2.71c2.2-1.22,5.11-2.87,7.31-4.08l.21,2.91Zm2.74,10.96l2.76-1.35-1.19,4.6-1.94.93s-.01.03-.01.04c.05-.39-.02-.63-.21-.61.02,0,.05-.03.06-.02.16-1.08.38-2.5.54-3.58Zm-.77,3.69s.05-.02.07-.04c-.24.18-.51.72-.57,1.24h0c-.03.24-.02.45.04.56.13.28.48-.03.71-.68.03-.1.05-.19.07-.3-.01.07-.01.09-.04.18,0,.01-.01.03-.01.04.57-.26,1.33-.63,1.9-.91l-.79,2.39c-1.04.48-2.42,1.14-3.44,1.67.2-2.01.53-4.69.63-6.7l1.92-1.01-.5,3.55Zm-7.21.66c.31,2.13.73,4.95.96,7.08l-.94.54c-.32-1.88-.83-4.37-1.2-6.25-.13.03-.21.02-.32-.01.35.1.75-.14.93-.68.05-.16.06-.32.06-.47,0,.03.01.04.01.08l.5-.3Zm5.09-23.09l2.9-1.57.16,4.03-2.72,1.45-.35-3.92Zm-.22-8.28s-.01.03-.01.05c.77-.42,1.79-.97,2.55-1.37l.54,7.27-2.93,1.58-.7-6.09-.03.03c-.07.06-.14.07-.2.11.25-.16.5-.42.64-.83.1-.28.13-.57.13-.84,0,.04.01.06.01.1Zm3.05-1.6c1.94-1.02,4.54-2.39,6.5-3.39l-.14,7.65c-1.76.92-4.12,2.11-5.87,3.04l-.49-7.3Zm-32.78,35.28c-.39-.2-.92-.23-1.45.06-.85.56-.64,1.33-.22,1.67.45.38,1.09.35,1.59.08-.08.05-.14.11-.24.14,1.87,2.04,4.36,4.78,6.36,6.69.05-.05.12-.1.21-.16-.53.35-.57.89-.09,1.19-.08-.05-.13-.1-.21-.19-1.7,1.02-3.97,2.37-5.66,3.39-19.42-14.03-35.25-35.21-67.72-90.63l4.74-2.77c-.05-.05-.06-.09-.1-.13.83.94,2.19.92,3.09.19-.24.19-.46.33-.8.45.01.02-.05.01-.07.02,11.3,19.95,14.67,25.84,24.62,42.08.18-.16.29-.26.43-.34-1.01.62-1.28,1.85-.61,2.7.96,1.19,2.97.76,3.44-.72.1-.34.09-.66.01-.97,0,.03.02.04.03.08l8.92-5.21c1.99,3.61,4.65,8.42,6.68,12.01.09-.09.2-.18.36-.27-.99.63-1.11,1.78-.6,2.47.83,1.12,2.7.69,3.1-.72.09-.33.08-.65-.01-.94.01.03.02.04.03.08.01.02.01.04.02.06.62-.38,1.46-.87,2.1-1.25l4.55,8.37-8.08,4.8-2.78-4.3c-1.44.85-3.36,1.98-4.79,2.84.03.04.04.06.06.09-.48-.57-1.39-.83-2.33-.33-1.17.77-.93,1.89-.39,2.4.67.64,1.74.59,2.42.06-.18.14-.36.24-.62.33,4.8,6.58,5.09,6.92,12.38,15.58l5.48-3.27c-2.21-2.93-5.02-6.94-7.13-9.94l7.79-4.64,2.69,4.68c-.16.09-.38.22-.54.33h0c-.41-.3-1.02-.37-1.64-.02-1.01.66-.85,1.66-.43,2.13.39.42.95.53,1.46.39-.01,0-.02.01-.03.01l1.02,1.6,2.04-1.22c1.58,2.52,3.64,5.9,5.28,8.38l-4.39,2.62s.03.02.04.03Zm-65.53,50.13c-.79.04-1.68.17-2.23.38.02-.01.05-.03.07-.04-.43-.01-1-.02-1.41-.03,9.08-4.52,12.25-6.11,24.53-12.88l2.4.2c-10.71,5.91-14.15,7.76-23.4,12.37h.04Zm21.54-12.9c8.42-4.74,8.76-4.93,13.69-7.79l2.07.37c-8.79,5.07-8.95,5.17-13.38,7.65l-2.38-.22Zm7.76-11.44s-.07.04-.1.06c-.45.31-.42.66-.01.91h-.01c-.25.14-.6.35-.86.49l-7.31-2.59,5.33-3.05c3.92,1.63,9.28,3.43,13.32,4.7l-2.49,1.45-4.92-1.29c-.05.04-.09.08-.15.11.15-.1.26-.22.29-.36.16-.69-1.8-1.09-3.07-.43Zm.61,1.18s-.04-.01-.06-.01c.79.12,1.71-.04,2.2-.36-.08.05-.19.11-.37.18,1.48.39,3.44.91,4.91,1.29l-1.54.9-6-1.51.85-.5Zm7.4,1.27l2.02.39-1.49.86-2.05-.38,1.52-.87Zm.73,1.69l1.79.24c-8.04,4.65-8.69,5.04-12.99,7.46l-2.05-.11q8.47-4.8,13.25-7.59Zm.55-.32l1.46-.86,1.74.27-1.43.83-1.77-.24Zm-.72-1.7l2.47-1.44,1.94.43-2.41,1.41-2-.4Zm-11.59-7.03l-6.69,3.82,8.12,2.89c-3.32,1.88-7.74,4.39-11.08,6.27l.82.17c3.31-1.86,7.71-4.34,11-6.23l6.04,1.49c-8.18,4.7-9.24,5.31-13.8,7.85l-3.87-.53,3.61-2-2.98-.58-.82-.17c-3.99-.96-9.21-2.66-13.12-3.89-4.08,2.23-9.55,5.16-13.65,7.34,4.89,1.32,11.54,2.66,16.52,3.6l.03-.03c-.33.32.09.6.99.67,1.24.1,2.78-.27,2.88-.69.04-.19-.19-.33-.54-.41.02,0,.03,0,.04.01l6.46-3.52,3.89.51c-12.06,6.62-15.07,8.19-24.71,12.94-14.77-1.08-22.19-1.63-38.13-6.75,2.58-1.21,6.02-2.81,8.59-4.05-.03-.01-.05-.02-.08-.03,1.29.31,2.78.09,2.94-.46.24-.81-2.2-1.44-3.6-1.03.04-.01.04-.03.08-.04-1.78-.73-4.14-1.7-5.92-2.43l5.37-2.66c3.89,1.77,9.25,3.71,13.22,5.25l6.58-3.4c-3.9-1.45-8.95-3.76-12.77-5.43,10.28-5.4,15.94-8.38,31.09-16.88,2.92,1.85,6.77,4.4,9.78,6.11-3.45,1.95-8.07,4.53-11.54,6.46l6.91,2.97c8.32-4.65,10.12-5.69,20.14-11.44-1.28-.75-3-1.76-4.28-2.52-.05.05-.09.07-.14.1.18-.12.33-.27.39-.46.36-1-1.52-1.84-3.03-1.06-.74.47-.68,1.01-.31,1.39-.02-.02-.04-.03-.06-.05l-4.64,2.66c-2.86-1.87-6.73-4.27-9.51-6.26,3.86-2.21,8.98-5.14,12.82-7.34,12.74,10.2,16.35,12.66,29.16,18.05-2.48,1.45-5.78,3.41-8.26,4.86-4.25-1.28-9.81-3.4-13.93-5.09Zm-17.4,19.48c-.76-.02-1.65.09-2.22.37.08-.04.15-.08.29-.13-4.7-.76-10.89-2.24-15.53-3.36,3.68-1.95,8.58-4.59,12.24-6.58,3.64,1.25,8.63,2.53,12.34,3.55l-3.72,2.05,3.07.55c-1.94,1.07-4.55,2.48-6.49,3.54,0,0,.01.01.02.01Zm-2.29.4s-.01,0-.01.01t.01-.01Zm7.15-4.67l3.09-1.71,2.15.42-3.03,1.69-2.21-.4Zm-4.51,4.29s.09.01.13.01c-.04,0-.09,0-.13-.01Zm-34.78,18.82c-.91.02-1.85.1-2.29.21.06-.01.11-.03.21-.05-3.06-.13-7.14-.32-10.2-.46,2.49-.8,5.76-1.99,8.21-2.88l11.31.5c-2.18.82-5.08,1.92-7.27,2.68h.03Zm-4.67-3.47c-2.59.99-6.1,2.2-8.74,3.08-18.16-2.29-19.25-2.42-34.41-6.74,2.11-.65,4.91-1.49,6.99-2.2l2.39.75s.04-.01.06-.02c-.26.23.28.63,1.33.9,1.31.35,2.8.36,2.99.02.12-.2-.23-.44-.77-.63h.02s3.82-1.06,16.99-6.95c14.61,4.1,21.94,6.16,38.24,6.72-7.73,3.6-8.36,3.9-12.72,5.68l-12.37-.61ZM13.87,233.36s-.1-.02-.18-.09c.07.06.13.09.18.09Zm-.04-1.38c1.09.19,2.53.46,3.63.65l2.35,6.45c-1.22-.22-2.89-.41-4.08-.79l-1.78-4.94h-.02s-.02.01-.03.02c.19-.09.12-.67-.07-1.38Zm8.97-65.1c0,.05,0,.07.01.13,11.45-3.59,18.95-6.77,34.33-13.94l1.93,7.02c-16.6,7.89-23.25,10.29-32.74,13.56l.62,3.84-3.28,1c-.44-2.9-1.03-6.75-1.48-9.65-.02,0-.04,0-.06.01.1-.04.21-.11.31-.25.25-.39.36-1.04.35-1.71Zm-.03-.5s.01.09.01.12c0-.04-.01-.08-.01-.12Zm32.65-54.21c4.38-2.2,10.2-5.17,14.54-7.45l3.27,11c-4.89,2.56-11.43,5.95-16.37,8.44l-2.02-10.23s-.03.01-.04.03c.16-.16.32-.38.43-.66.14-.36.2-.75.2-1.13ZM189.12,43.46c3.51-1.95,8.2-4.53,11.72-6.46l3.93,3.33c-13.49,7.41-26.22,14.41-58.92,33.61.06.05.11.11.17.17-.61-.61-1.65-.87-2.7-.32-1.21.8-1.15,2.09-.4,2.82.8.79,2.1.74,2.9.13-.21.16-.43.28-.74.39,3.45,4.89,8.02,11.43,11.36,16.39q-26.68,15.73-33.13,19.49l.12.18c-.54-.71-1.52-1.05-2.57-.49-1.4.91-1.24,2.43-.67,3.17.55.73,1.4.9,2.16.66-.04.01-.06.05-.11.06l5.61,10.77c-6.51,3.71-15.21,8.65-21.75,12.31l-1.3-2.88,6.96-3.9-3.77-8.05c-4.29,2.42-10.04,5.61-14.35,8.01l4.67,11.13c-5.91,3.19-13.81,7.43-19.77,10.55l-3.99-11.45c-3.44,1.78-8.04,4.09-11.48,5.84-1.28-4.81-3.04-11.21-4.22-16.04,11.33-5.74,12.26-6.21,21.9-11.4-.02-.04-.04-.08-.06-.13.76,1.36,2.43,1.14,2.92-.43.53-1.68-.85-3.3-2.21-2.62.12-.06.24-.11.4-.14-1.74-5.02-4.05-11.7-5.72-16.73,36.36-20.12,71.66-42.05,107.87-62.43l5.19,4.47Zm-4.35-4.93c3.18-1.76,7.43-4.12,10.62-5.87l4.6,3.64c-3.26,1.78-7.57,4.18-10.81,5.97l-4.4-3.74Zm64.1,25.49s.03.03.05.05c-.72-.61-1.74-.93-2.68-.5-1.12.67-.82,2,.09,2.86.88.82,2.08,1.02,2.84.61-.13.07-.28.12-.52.18,2.1,2.67,4.89,6.23,7,8.89-19.05,9.9-29.06,15.28-54.55,29.72l-4.76-7c18.04-10.22,31.21-17.64,49.22-27.07-10.78-12.87-13.68-16.33-26.93-29.08,4.67-2.44,10.88-5.68,15.57-8.06,13.63,12.47,14.44,13.21,24.38,24.51l-9.74,4.88Zm.47.48c-.09-.11-.18-.21-.29-.32.09.09.18.19.29.32Zm69.98,37.31c.82,1.48,2.21,1.95,2.66.91.22-.52.13-1.2-.12-1.83.02.07.05.12.08.21,2.34-.86,5.45-2.03,7.8-2.87,7.67,18.01,7.98,18.71,11.67,30.51-2.99,1.15-6.99,2.69-9.95,3.91l-3.92-10.9-6.03,2.6-1.71-4.18,3.91-1.71q-9.13-20.62-20.62-39.93l3.6-1.46c3.88,6.55,8.93,15.37,12.45,22.13.05-.04.12-.06.18-.1-.61.44-.64,1.58,0,2.73Zm19.05,33.52c.39,1,1.01,1.54,1.52,1.44-.06.01-.1.03-.18.03.38,1.37.86,3.2,1.23,4.58l-6.02,2.44-1.69-5.65,5.45-2.22c-.13-.22-.22-.42-.31-.63Zm-73.04,116.39l3.43-2.05c2.07,3.98,4.81,9.28,6.91,13.23l-2.1,1.25c.06.07.21.26.33.54-.33-.78-1.25-1.25-2.27-.77.09-.04.15-.09.25-.12-1.96-3.62-4.6-8.45-6.55-12.07Zm-36.66-37.72s-.06.04-.09.06c.28-.26.52-.59.65-1,.59-1.84-1.18-3.6-3.22-2.53-1.12.72-1.32,1.8-1.08,2.64-.02-.04-.04-.07-.05-.12-1.42.83-3.33,1.94-4.74,2.78q-8.4-14.58-14.56-25.37l-.05.05s-.04.03-.06.04c.31-.27.56-.63.69-1.08.59-1.92-1.3-3.81-3.44-2.72-1.1.69-1.38,1.78-1.13,2.7,0-.01-.01-.03-.02-.05-3.62,2.09-8.45,4.85-12.07,6.94-3.03-5.19-7.08-12.1-10.1-17.28l-.66-1.14-3.65-6.32c13.47-7.69,26.9-15.44,40.4-23.08l3.64,6.32c-13.46,7.69-26.89,15.45-40.38,23.08l.66,1.14c13.48-7.67,26.9-15.42,40.37-23.09l4.28,7.6-12.83,7.38c1.05,1.82,2.44,4.24,3.49,6.06.16-.14.29-.23.43-.32-1.37.86-1.49,2.46-.78,3.46,1.16,1.66,3.75,1.13,4.26-.87.11-.45.08-.87-.03-1.26.01.05.03.07.05.13l10.19-5.89,4.8,8.91-3.33,1.93c7.72,14.51,10.33,19.39,22.81,43.55l3.06-1.81c1.89,3.74,4.41,8.75,6.31,12.49l-2.44,1.45c.08.07.23.3.36.58-.39-.93-1.5-1.48-2.73-.81-1.39.93-1.23,2.36-.68,3.04.65.81,1.76.8,2.58.25-.18.12-.37.27-.59.35l4.95,9.2-8.88,5.26s.04.06.06.09c-.52-.64-1.49-.93-2.47-.37.12-.07.26-.13.49-.21-8.81-14.59-11.65-19.35-24.46-42.15Zm-3.41-.16c-.13-.17-.23-.37-.31-.58.07.21.17.41.31.58Zm18.65,95.21s-.04-.02-.07-.03c.78.33,1.78.22,2.37-.15-.13.08-.26.14-.47.22l3.59,2.16c-7.88,4.55-8.5,4.9-18.89,10.73l-5.26-2.29c3.23-1.8,7.54-4.22,10.76-6.03l3.22,1.7,3.33-1.89-3.13-1.76c1.36-.79,3.18-1.85,4.55-2.66Zm-.54-.34c.1.1.23.18.37.25-.14-.07-.26-.15-.37-.25Zm-2.3,4.77l-1.93,1.1-2.48-1.33,1.97-1.13,2.44,1.36Zm-5.16-.65c-2.93-1.83-6.89-4.19-9.72-6.14l-.74-.52-2.75-1.99c-.06.06-.13.1-.19.14.19-.14.37-.32.44-.52.15-.4-.02-.79-.35-1.11.06.06.12.12.18.19.36-.19.82-.47,1.18-.66l3.64,2.73-2.16,1.22.74.52,2.15-1.21c2.86,1.88,6.62,4.48,9.56,6.23l-1.98,1.13Zm-11.85-11.64l-2,1.13c-.67-.31-1.59-.37-2.42.06-1.16.72-.62,1.64.11,2.03.84.46,1.98.39,2.67-.03-.14.09-.29.16-.52.23.83.59,1.94,1.38,2.77,1.98-12.93,7.22-18.68,10.41-31.23,16.95l-1.96-1c4.51-2.35,10.5-5.53,14.97-7.93l-4.08-2.54c-4.58,2.45-10.71,5.68-15.31,8.09l-1.77-1.02c3.4-1.78,7.94-4.13,11.33-5.94-3.31-2.29-7.76-5.26-10.97-7.68,3.57-1.91,8.32-4.47,11.87-6.4-3.05-2.72-7.18-6.27-10.15-9.07l7.74-4.25c4.95,4.72,11.73,10.84,16.95,15.27l6.49-3.64s-.06-.05-.11-.08c1.22.69,2.98.3,3.25-.76.33-1.29-1.75-2.24-3.22-1.52.09-.04.18-.09.32-.13-4.41-4.2-10.22-9.89-14.47-14.26l2.17-1.22-2.48-2.74,6.41-3.63c-2.71-3.31-6.36-7.69-9-11.07l-6.68,3.77c-10.75-13.76-11.17-14.3-17.87-23.86,3.87-2.17,9.02-5.05,12.89-7.23,18.21,26.68,31.82,44.53,51.54,62.42-3.86,2.22-9.01,5.18-12.88,7.39l-4.33-3.31Zm-1.56,1.41c-.08-.07-.18-.12-.28-.18.1.06.2.11.28.18Zm-34.95,31.28s-.01-.01-.01-.01c-2.58,1.22-6.02,2.87-8.62,4.06l-6.34-2.32c-.06.05-.14.08-.22.12.11-.06.24-.12.28-.21.13-.26-.11-.56-.54-.81.03.01.06.03.09.04,2.71-1.24,6.33-2.88,9.01-4.17l5.95,2.43s.08-.03.1-.05c-.33.27-.21.63.28.93Zm-30.73,10.42c3.05-1.15,7.12-2.69,10.14-3.92-26.11-10.33-56.87-25.46-91.65-74.78,11.38-4.45,12.85-5.02,22.5-9.29,3.94,5.47,9.21,12.76,13.37,18.07l-3.97,1.8c12.84,14.92,13.6,15.82,25,26.37.11-.1.21-.17.33-.22-.85.43-.72,1.44.31,2.22,1.26.96,3.06,1.01,3.44.1.18-.45-.03-.93-.43-1.35.04.04.08.06.12.11l1.98-.85c4.52,3.71,10.57,8.65,15.28,12.11-3.87,1.79-9.02,4.17-12.92,5.88,5.03,3.08,11.75,7.15,16.95,9.92.04-.03.1-.05.16-.08-.52.37-.19.98.85,1.42,1.3.56,2.92.53,3.2-.06.16-.33-.12-.67-.6-.96.04.02.07.03.11.05,3.18-1.44,7.44-3.36,10.6-4.87l8.66,4.19c-2.69,1.27-6.25,2.98-8.94,4.21-.83-.26-1.87-.36-2.63-.05-.87.46-.02,1.11.93,1.41.94.29,1.97.32,2.57.11-.01.01-.03.02-.04.03,1.84.7,4.29,1.65,6.13,2.36-8.88,3.89-10.48,4.59-17,7,.04,0,.11.02.16.03-.84-.19-1.81-.28-2.41-.15.03-.01.06-.03.08-.03-.69-.23-1.61-.54-2.29-.77Zm-81.74-54.7s.02.02.03.04c.01.01.03.04.04.05.47-.13,1.1-.33,1.57-.47,13.71,15.19,23.62,26.16,48.17,41.17l-2.19.7c-15.51-9.86-27.76-17.65-47.31-39.92-.05.03-.12.04-.18.07.07-.04.17-.05.22-.13.22-.34.04-.93-.35-1.52Zm2.31-.58l2.48-.79c13.03,14.48,23.32,25.9,46.63,40.42.04-.02.1-.03.15-.06-.39.25-.2.69.35,1.12,0,0-.02-.01-.03-.02-.44.15-1.03.36-1.48.51-16.15-10.36-27.82-17.84-48.11-41.17Zm50.57,41.24s-.05-.03-.08-.04c1.25.57,2.63.67,2.85.18.36-.83-2.41-2.2-3.79-1.93.03-.01.06-.03.09-.04-16-10.66-27.56-18.36-47.27-41.39l-3.16,1.02-7.22-9.21c-.09.05-.2.1-.32.15.15-.04.28-.09.38-.22.66-1.04-1.54-3.97-3.16-3.63-.67.26-.52,1.1-.09,1.88-.02-.04-.05-.08-.07-.12-2.26.59-5.26,1.44-7.54,1.96l-4.58-6.65q9.66-2.53,15.31-4.47c26.74,37.11,47.99,55.15,84.2,71.46l-5.38,1.96,1.05.41,5.96-2.2c-17.04-7.6-52.49-23.4-85.11-71.88l4.54-1.63c14.82,20.55,39.63,54.92,90.76,74.39-2.86,1.12-6.67,2.62-9.56,3.67l-6.58-2.36-1.05-.41c-6.58-2.9-15.27-7.02-21.62-10.41l1.46-.51Zm-61.36-52.62c-.16-.2-.29-.39-.38-.54.1.19.24.37.38.54Zm-35.89-30.05l-.52-1.14-2.74-6.39c7.58-1.25,11.03-1.82,23.11-5.99l3.01,6.37c-10.17,3.33-14.81,4.85-23.39,6.01l.52,1.14c7.68-1.25,11.18-1.83,23.43-6.02,2.78,5.19,6.45,12.14,9.44,17.21-11.01,3.54-11.67,3.75-19.79,5.43,2.98,4.7,6.88,11.04,10.07,15.59l-3.67.53s.06.08.09.12c-.6-.72-1.3-1.32-1.82-1.4h.08c-9.91-15.56-11.43-17.95-17.83-31.46Zm-16.1-47.25c.23.84.58,1.44.9,1.61h-.03c1.56,6.51,3.68,15.2,5.57,21.62l-3.33.23.37,1.2,3.34-.22,2.21,6.52-3.4.22.42,1.19,3.41-.22,2.46,6.45-3.46.23-2.41-6.46-.42-1.19-2.15-6.52-.37-1.2c-1.85-6.93-4.2-16.19-5.66-23.21l2.55-.15s-.01-.06-.01-.09Zm109.21-86.44s.01.02.01.04q9.55-5.52,33.26-19.48l3.9,5.96c-9.59,5.65-19.19,11.32-28.8,16.94l3.09,5.69-6.41,3.71-5.63-10.75s-.02.01-.04.02c.26-.24.48-.56.59-.96.12-.41.11-.8.02-1.17Zm178.55,46.6c.56,1.06,1.53,1.33,2.24.9-.11.07-.23.15-.35.19,8.97,27.57,9.76,30.85,13.03,44.65-11,5.88-12.15,6.49-22.12,12.08-1.4-3.94-3.23-9.22-4.69-13.14,4.59-2.55,10.71-5.94,15.32-8.45l-2.62-8.29-.06.07s-.07.03-.1.06c.2-.19.39-.44.5-.78.56-1.66-.64-3.68-2.21-2.96-.58.37-.85.93-.95,1.5.01-.04,0-.05.01-.09-2.85,1.56-6.63,3.63-9.47,5.19-6.06-15.43-12.33-31.38-24.08-53.8l-8.12,4.41c.37.45.44.59.61,1.15,2.15-1.17,4.99-2.73,7.14-3.9,7.91,15.75,14.74,29.36,23.98,53.69l9.98-5.47c-.02-.11-.02-.16-.03-.24.03.22.08.44.15.6.02.05.06.12.08.17.5.96,1.35,1.16,2.04.78-.08.05-.14.13-.24.17.67,2.13,1.58,4.97,2.25,7.11-4.37,2.4-10.2,5.61-14.57,8.04-6.46-16.75-8.32-21.27-15.39-37.24-.06.06-.1.07-.15.12.25-.21.48-.49.61-.84.68-1.77-.94-3.98-2.8-3.08-1.4.89-1.22,2.55-.65,3.4.69,1.04,1.88,1.2,2.71.62-.17.12-.33.21-.66.32,6.98,15.76,8.43,19.03,15.47,37.2l-2.87,1.62c-9.03-22.63-15.16-36.79-27.57-60.91l-.05.05s-.04.02-.07.04c.26-.23.49-.54.61-.94.57-1.8-1.28-3.93-3.19-2.98-1.3.81-1.28,2.43-.52,3.46.8,1.07,2.1,1.19,2.96.56-.2.15-.38.24-.73.36,11.94,23.39,17.37,34.98,28.09,61.9l3.73-2.11c1.42,3.94,3.36,9.17,4.73,13.12-12.78,7.29-13.81,7.88-24.13,13.95-11.31-24.04-19.67-41.6-32.48-65.61,4.12-2.35,9.63-5.45,13.75-7.79l-4.62-8.71c-4.16,2.33-9.7,5.47-13.85,7.81l-4.25-7.59c17.81-9.99,21.39-11.96,35.63-19.69l2.15,3.99c4.1-2.18,9.55-5.1,13.66-7.24,8.58,17.47,8.91,18.15,13.46,29.02,3.92-2.03,9.13-4.77,13.06-6.77-2.43-5.97-5.7-13.95-8.32-19.84l-.54-1.16c-2.71-5.49-6.29-12.84-9.17-18.24l-.04.04c-.08.07-.13.1-.18.14.22-.16.42-.39.53-.69.6-1.63-1.23-4.1-3.01-3.37-.81.46-.97,1.44-.67,2.35-.01-.03-.02-.04-.03-.07-1.51.75-3.52,1.77-5.03,2.52-3.18-5.35-7.42-12.51-10.77-17.77,13.28-6.51,16.6-8.1,28.69-13.49q11.55,19.26,20.39,38.72c-11.43,5.26-12.13,5.57-20.7,9.86l.54,1.16c12.36-6.07,13.37-6.57,20.65-9.85l1.72,4.19-6.52,2.98c2.5,6.52,5.79,15.24,8.03,21.85-5.2,2.52-12.12,5.94-17.27,8.56.06.1.15.28.25.52-.4-1.02-1.3-1.73-2.31-1.27-1.19.71-1.06,2.34-.59,3.21Zm-2,25.88c-.04.24-.03.48-.01.71-.02-.21-.03-.45.01-.71Zm-65.04-4.76l2.21-1.27c6.68,12.84,11.1,21.32,21.17,41.68l-2.02,1.19c-10.28-20.43-13.88-27.46-21.35-41.6Zm20.35,42.2l-2.07,1.22c-11.64-22.63-14.67-28.45-21.62-41.48l2.24-1.3c6.96,13.22,10.78,20.5,21.44,41.56Zm4.53-1.37c-10.85-22.03-13.97-28.18-22.17-43.82l-3.3,1.9-4.79-8.92,6.73-3.87c10.1,19.17,16.6,31.66,32.62,65.54l-5.85,3.47c-1.88-3.75-4.38-8.77-6.27-12.52l3.01-1.78Zm-47.2-51.02l11.69-6.72,3.53,6.4c-3.04,1.78-7.1,4.16-10.15,5.95.05.05.07.1.11.15-.66-.82-1.86-1.18-2.97-.57.16-.09.34-.16.57-.23l-2.78-4.97Zm-14.34,31.53c.89,1,2.32,1,3.25.24-.25.2-.49.35-.83.46.01.02-.06.01-.08.02,3.08,5.19,7.18,12.12,10.29,17.29l-5.17,2.98c-3.4-5.57-7.92-13.01-11.28-18.61l3.93-2.26s-.06-.09-.1-.13Zm6.4,21.61l-7.27,4.17c-3.48-5.53-8.12-12.92-11.54-18.49l7.5-4.27c3.38,5.58,7.88,13.04,11.31,18.6Zm-19.44,47.46c2.64-1.45,6.18-3.4,8.84-4.85l7.91,9.27-2.2,1.23,2.5,2.73-7.41,4.13c-2.98-3.2-7.01-7.42-9.91-10.7l-.04.05c-.05.04-.09.06-.13.09.24-.19.45-.44.54-.74.49-1.5-1.64-3.13-3.5-2.21-1.37.85-.9,2.17-.14,2.8.9.75,2.21.76,3.01.21-.19.13-.38.23-.67.33,2.97,3.21,6.88,7.55,9.94,10.68l-7.76,4.25c-11.08-11.27-12.79-13.01-22.33-24.54l-8.56,4.55c-5.3-6.66-12.19-15.7-17.21-22.57,5.92-3.12,13.8-7.29,19.69-10.47l6.39,9.22c.07-.05.12-.06.19-.1-1.03.65-1.19,1.96-.34,2.95,1.18,1.33,3.38,1.11,3.92-.4.22-.63.07-1.29-.32-1.82.09.12.19.25.27.44,0,.02.01.04.02.06,2.25-1.23,5.23-2.88,7.48-4.12,10.45,14.47,11.29,15.65,17.93,23.84l-8.84,4.91c.35.26.5.44.7.78Zm32.24,24.79s-.02-.02-.03-.03c-1.71.96-3.99,2.24-5.7,3.19-4.93-4.28-11.4-10.14-16.1-14.69l7.39-4.12c4.29,4.35,10.09,10.07,14.59,14.21.13-.12.24-.2.37-.27-.79.48-.87,1.17-.51,1.71Zm-16.04-18.88l1.26-.71,1.78,1.96-1.26.7-1.78-1.95Zm-6.4-11.3l5.69-3.19,7.68,9.38-5.48,3.1-7.88-9.29Zm-20.49,48.31s-.05-.03-.08-.05c.94.44,2.05.44,2.71.09-.07.04-.12.07-.23.12l6.31,3.91-5.86,2.96-7.68-4.61c1.45-.73,3.39-1.7,4.84-2.42Zm-.7-.46c.14.13.32.24.51.35-.19-.1-.36-.21-.51-.35Zm3.77.13c-.12.14-.22.23-.35.32.2-.13.36-.28.42-.48.36-1.12-2.04-2.36-3.74-1.6-.75.43-.7,1.04-.2,1.54-.02-.01-.03-.02-.05-.04l-5.65,2.82,8.6,5.17-5.62,2.76c-5-2.95-11.66-6.94-16.48-10.18,11.93-5.83,12.65-6.17,21.02-10.53l4.84,3.7,4.05-2.14c3.04,2.15,7.03,5.1,10.15,7.12-3.17,1.67-7.4,3.91-10.59,5.54-1.92-1.2-4.49-2.8-6.4-4Zm-36.01,6.22c3.66-1.65,8.53-3.85,12.16-5.55,4.89,3.15,11.44,7.32,16.52,10.17-3.17,1.49-7.4,3.48-10.6,4.92.13.04.37.14.61.26-.85-.43-2.13-.68-2.96-.42.03-.01.06-.04.09-.05-4.79-2.74-11.17-6.38-15.82-9.34Zm-6.35-17.77c-.78-.69-2.07-1.12-2.99-.77.09-.04.17-.07.31-.1-13.24-12.75-14.32-13.78-24.12-25.42l3.13-1.42c12.84,14.88,13.61,15.77,25.14,26.44l-1.94.91c.11.07.28.2.48.38Zm-22.81-28.12l2.66-1.22c-.05-.05-.08-.08-.12-.12.86.8,2.02,1.04,2.76.67-.12.07-.26.11-.46.15,12.18,14.17,13.16,15.33,23.83,25.28l-3.57,1.69c-13.54-12.9-14.35-13.67-25.1-26.45Zm30.35,25.12c-13.39-12.81-14.19-13.57-24.71-26.04-.11.1-.2.17-.31.22.23-.12.43-.31.54-.56.63-1.42-1.59-3.71-3.49-2.96-1.17.63-.74,1.98.03,2.77-.17-.17-.33-.36-.48-.6-.81.33-1.9.76-2.73,1.1-4.08-5.37-9.49-12.55-13.36-18.08,18.93-8.76,28.91-13.66,54.43-27.3l4.36,6.6c-6.18,3.32-14.47,7.71-20.69,10.97,11.42,15.72,11.64,16.01,17.99,23.62l-7.32,3.8c-.46-.32-1.65-.98-2.85-.27-1.15.86-.51,2.12.16,2.71.31.26,1.15.86,2.35.69,13.66,14.72,13.92,15,27.99,27-12.3,6.31-13.58,6.96-21.09,10.56-4.63-3.56-10.8-8.33-15.25-12.13l4.4-2.1Zm-67.9-128.15c.81,1.42,2.44,1.39,2.98-.09.66-1.78-.85-3.81-2.32-3.2.1-.04.2-.08.39-.12l-.6-1.61,5.36-2.74,3.61,9.1c-20.16,10.23-28.37,13.93-42.84,19.84l-1.43-5.17c13.58-5.53,17.5-7.31,34.92-15.87-.04-.06-.05-.09-.07-.14Zm10.78,2l-4.09-10.22c6.08-3.19,14.18-7.51,20.23-10.77l1.52,3.36.49,1.1,3.46,7.49c1.81-.99,4.22-2.3,6.03-3.29-.17-.15-.31-.29-.42-.45,1.04,1.44,3.14,1.08,3.63-.66.55-1.9-1.31-3.61-2.98-2.77.14-.07.31-.13.52-.18l-2.19-4.57,7.24-4.04c-.18-.26-.26-.51-.33-.73.07.27.18.53.33.73.75,1.08,2.07,1.17,2.95.49-.23.18-.48.32-.78.4l3.33,6.63-4.09,2.28,2.77,5.48c-15.03,8.25-16.27,8.92-24.63,13.34l-1.03-2.24-.04.05s-.06.02-.09.04c.24-.2.46-.46.59-.8.68-1.78-.87-3.97-2.76-3.11-.87.52-1.15,1.52-.97,2.42-.01-.02-.02-.03-.02-.04-1.18.62-2.77,1.44-3.95,2.05l-3.91-9.29c5.21-2.76,12.15-6.44,17.32-9.24l-.49-1.1c-5.44,2.93-12.71,6.82-18.18,9.68l4.34,10.42c-19.32,9.84-28.91,14.46-44.25,20.78l2.75,8.27c.13-.11.21-.16.32-.2-.85.4-.9,1.79-.43,2.88.65,1.53,2.01,1.99,2.54.87.2-.42.24-.9.18-1.38,8.77-3.59,22.03-9.02,50.83-24.14l-2.26-4.8c14.48-7.73,15.34-8.19,24.67-13.36l3.39,6.59c3.01-1.68,7.03-3.91,10.04-5.58-.05-.05-.07-.09-.11-.14,1.17,1.41,3.38.98,3.87-.8.54-2.01-1.46-3.69-3.27-2.74.16-.09.35-.15.57-.21l-5.57-10.57-7.13,4.02-3.34-6.63s-.05.04-.08.06c.27-.24.5-.56.63-.98.57-1.77-1.1-3.67-2.99-2.74-1.04.64-1.26,1.69-1.07,2.54-.03-.12-.06-.24-.07-.36-2.21,1.23-5.15,2.87-7.34,4.1l-1.57-3.34c6.66-3.73,15.54-8.74,22.18-12.51,7.94,15.02,9.84,18.6,15.95,29.76-31.92,17.88-68.51,37.94-98.91,49.81-2.26-6.37-5.22-14.87-7.2-21.33,15.3-6.17,24.79-10.7,43.85-20.35Zm27.16-12.9c-.09-.13-.17-.26-.25-.46l-4.83,2.64-2.95-6.37,6.1-3.35c.66,1.35,1.56,3.16,2.22,4.52.14-.11.24-.18.36-.25-1.08.67-1.36,2.15-.64,3.27Zm-8.53-5.27l-1.52-3.36,6.04-3.33,1.56,3.34-6.08,3.35Zm32.38,9.46s-.01-.02-.01-.03l-8.97,4.99-2.81-5.44,4.12-2.3-2.81-5.46,6.07-3.42c1.5,2.84,3.49,6.62,4.98,9.46.17-.16.33-.28.5-.38-.91.53-1.3,1.6-1.08,2.57Zm.4.82c-.17-.24-.3-.48-.39-.81.07.28.2.56.39.81Zm-9.66-4.13l-3.08,1.72-2.21-4.37,3.06-1.7,2.23,4.35Zm-78.98,43.29c.06-.02.12-.04.23-.05-.7-2.13-1.64-4.95-2.34-7.08,15-6.31,23.42-10.16,43.66-20.54l2.13,4.81,6.12-3.18,1.72,3.68c-12.56,6.49-31.55,16.3-49.68,23.67-.42-.87-1.14-1.5-1.84-1.31Zm46.38-30.31c.6.84,1.52,1.04,2.27.71-.12.06-.22.16-.38.19l1.02,2.24-5.19,2.72-1.63-3.69,3.96-2.07s-.03-.07-.05-.1Zm66.44-73.48l2.88,4.5c-9.39,5.51-18.77,11.05-28.18,16.53l-2.54-4.66c9.29-5.44,18.55-10.92,27.84-16.37Zm67.91,19.33c.79.85,1.91.99,2.78.58-.15.07-.26.18-.45.22l2.92,4.77c-4.61,2.55-10.76,5.95-15.37,8.53l-3.73-6.17c4.19-2.34,9.77-5.47,13.97-7.8-.05-.05-.06-.08-.11-.13Zm56.29-10.42c.75.97,1.84,1.25,2.56.82-.1.06-.2.11-.39.17,2.73,5.46,6.38,12.74,9,18.26l-5.99,3.04c-2.97-5.92-6.95-13.81-10.11-19.63l5.03-2.52c-.04-.05-.06-.1-.1-.14Zm4.85,23.92l6.87-3.5c2.41,5.58,5.66,13.02,7.9,18.67-3.42,1.77-7.99,4.11-11.39,5.91-7.53-17.15-8.14-18.55-13.54-29.02-4.08,2.16-9.54,5.02-13.61,7.2l-1.54-2.86,3.31-1.77-4.11-7.4c4.62-2.42,10.78-5.65,15.43-8.03,3.28,6.21,7.61,14.49,10.68,20.79Zm-23.59-5.98l-2.34,1.25-2.7-4.83c-.07.06-.11.09-.17.13.24-.2.46-.46.58-.81.2-.58.11-1.21-.14-1.77.04.1.09.16.13.28l1.14-.52,3.5,6.27Zm-5.28-6.82c.09.1.22.26.36.48-.6-.99-1.78-1.63-2.96-1.08-1.39.86-1.05,2.53-.38,3.4.81,1.04,2.1,1.22,2.93.66-.18.13-.36.21-.67.29.8,1.45,1.88,3.39,2.7,4.83-13.48,7.31-17.1,9.28-35.66,19.69l-3.63-6.31c4.92-2.74,11.47-6.4,16.41-9.12l-4.38-7.41c6.82-3.7,15.92-8.62,22.77-12.27l3.66,6.23-1.13.6Zm-22.62,12.27c-4.61,2.56-10.76,5.97-15.37,8.56l-3.71-6.28c4.61-2.56,10.75-5.99,15.37-8.53l3.71,6.26Zm-20.85,1.74l-6.81,3.85-3.7-6.17,6.77-3.84,3.73,6.16Zm-44.79,71.38l6.82-3.82,4.11,6.8-6.77,3.81-4.15-6.79-.68-1.11c-3.09-5.17-7.21-12.05-10.26-17.25l6.89-3.85c3.05,5.19,7.12,12.1,10.2,17.26l-6.83,3.84.68,1.11Zm-32.7,1.42c-1.08.65-1.21,1.74-.9,2.63-.02-.05-.04-.07-.05-.12-5.84,3.07-13.63,7.16-19.5,10.19l-2.7-4.61c-20,10.13-31.05,15.49-47.68,22.52t.01.01c-.57-.74-1.39-1.25-2.21-.98-1.1.55-.71,2.13-.11,3.02.67.99,1.63,1.41,2.29,1.19-.09.03-.18.05-.32.07.01.01-.04,0-.06,0l4.41,7.76c4.64-1.95,10.82-4.58,15.43-6.62l2.45,4c-12.41,5.4-14,6.09-22.39,9.3-2.92-5.13-6.86-11.95-9.56-17.19,15.3-6.11,38.43-15.35,101.51-50.34,3.07,5.18,7.16,12.1,10.27,17.24-6.97,3.87-16.28,8.98-23.28,12.78l.7,1.12c7-3.8,16.3-8.91,23.26-12.78l4.16,6.79c-6.92,3.85-16.17,8.95-23.12,12.75l-4.3-6.75-.7-1.12-4.47-7.25-.06.08c-.09.1-.18.18-.28.26.28-.22.52-.53.64-.92.62-1.84-1.38-4-3.46-3.03Zm-.5,3.35c-.13-.16-.25-.38-.35-.59.09.21.2.42.35.59Zm37.35-119.73c.73.69,1.76.75,2.58.39-.11.05-.18.15-.33.18l2.23,3.17-9,5.23-2.98-4.45,7.61-4.41c-.06-.05-.07-.07-.11-.11Zm-26.25,43.94c.83,1.03,2.25,1.02,3.18.26-.14.1-.28.21-.41.31,3.13,6.02,7.34,14.05,10.67,19.96l-7.58,4.33q-9.01-16.27-16.31-29.64c9.57-5.58,19.13-11.19,28.7-16.79l4.39,7.17c-5.77,3.38-13.45,7.87-19.22,11.24.06.08.07.1.12.16-.62-.73-1.7-1.08-2.86-.47-1.58,1.03-1.35,2.68-.7,3.47Zm2.03,36.7l-3.45-6.21,6.81-3.87,3.48,6.21-6.84,3.87Zm7.49-2.73l3.55,6.26-6.87,3.86-3.53-6.25,6.85-3.87Zm-3.01-7.98l7.58-4.33,3.52,6.2-7.62,4.34-3.48-6.21Zm12.85-48.21l6.67-3.9,4.51,7.12-6.77,3.93-4.4-7.15Zm-.64-1.03l-3.97-6.3,6.56-3.84,4.07,6.26-6.66,3.88Zm-1.09.64c-8.65,5.08-25.26,14.81-28.65,16.76l-3.55-6.51c9.42-5.51,18.83-11.05,28.24-16.56l3.96,6.31Zm-12.87,48.1l-6.81,3.86q-9.37-17.22-15.99-29.75l6.52-3.76c8.2,15.06,10.41,19.09,16.28,29.66Zm-3.84,11.82c-32.24,17.97-69.19,38.15-99.91,50.09l-2.6-6.44c14.03-5.68,37.52-15.19,99.07-49.86l3.45,6.21Zm.64,1.14l3.53,6.25c-32.51,18.04-69.77,38.28-100.75,50.27l-2.83-6.39c15.09-6.09,37.89-15.29,100.05-50.13Zm4.18,7.4l3.63,6.3c-32.74,18.06-70.25,38.33-101.44,50.33l-3.05-6.35c15.21-6.1,38.2-15.33,100.86-50.28Zm4.74,5.68l-3.63-6.3,6.88-3.86,3.64,6.31-6.89,3.85Zm.15-18.19l7.62-4.33,3.58,6.26-7.64,4.32-3.56-6.25Zm4.57-12.32q35.05-20.23,40.05-23.08l3.7,6.17c-13.43,7.67-26.8,15.43-40.23,23.11l-3.52-6.21Zm40.49-24.83l-1.91-3.14,6.75-3.82,1.93,3.12-6.77,3.85Zm-1.11.63c-13.37,7.65-26.67,15.39-40.02,23.07-3.35-5.94-7.81-13.85-11.15-19.8-.02.01-.04.03-.05.04.28-.28.53-.63.65-1.07.12-.45.11-.9-.01-1.3,0,.02.01.03.02.05,5.78-3.35,13.49-7.81,19.27-11.18,2.81,4.7,6.56,10.96,9.35,15.68.07-.07.17-.09.24-.15-1.05.86-1.14,2.27-.47,3.18,1.15,1.58,3.64,1.16,4.23-.71.21-.65.09-1.31-.22-1.86.03.06.07.08.1.15,4.84-2.78,11.3-6.47,16.14-9.24l1.91,3.13Zm-50.81.46c.09.13.16.27.2.43-.05-.15-.12-.29-.2-.43Zm32.18,4.89c.08.07.15.17.25.28-.08-.1-.16-.2-.25-.28Zm-.27-.22s.11.09.16.13c-.59-.47-1.4-.64-2.27-.33.05-.02.08-.06.13-.08-2.78-4.71-6.46-11.01-9.3-15.69l6.79-3.94,4.73,7.66c.16-.16.33-.3.51-.4-1.32.8-1.42,2.38-.69,3.36,1.14,1.5,3.59,1.12,4.16-.65.21-.66.08-1.33-.25-1.87.05.08.11.13.16.22l8.01-4.56,4.18,6.75c-4.89,2.82-11.42,6.56-16.32,9.38Zm3.32-12.54c.1.08.33.28.53.56-.64-.87-1.86-1.33-3.09-.65.18-.11.38-.18.6-.24-1.42-2.3-3.32-5.36-4.74-7.66l9.31-5.37,5.53,8.69-8.14,4.68Zm-7.36-9.03l-4.52-7.11,9.18-5.3,4.64,7.05-9.3,5.36Zm-5.17-8.12l-4.08-6.25,9.02-5.23,4.21,6.18-9.16,5.29Zm3.08-16.23l-.05.05s-.06.03-.09.05c.25-.21.47-.48.58-.81.59-1.7-1.37-3.46-3.4-2.42-1.09.69-1.17,1.68-.85,2.43l-.06-.12c-2.27,1.33-5.3,3.09-7.58,4.41l-4.05-5.88c4.78-2.79,11.16-6.49,15.95-9.25,2.45,3.31,5.78,7.68,8.19,11.03l-6.4,3.68-2.24-3.17Zm-3.43-.11c-.12-.13-.23-.31-.33-.48.09.18.2.35.33.48Zm-5.44,9.72l-6.55,3.82-2.89-4.49,6.47-3.77,2.97,4.44Zm-32.76,29.14l-6.51,3.75-3.45-6.55,6.43-3.71,3.53,6.51Zm-87.62,92.9l-4.29,1.59-2.55-6.45,4.24-1.58,2.6,6.44Zm.5,1.18l2.82,6.39-4.35,1.61-2.77-6.4,4.3-1.6Zm3.36,7.56l3.05,6.35-4.4,1.62-3.01-6.36,4.36-1.61Zm3.62,7.48c2.82,5.19,6.53,12.14,9.55,17.2l-4.51,1.63c-2.88-5.14-6.79-11.96-9.46-17.21l4.41-1.62Zm10.23,18.31l4.35,6.8-4.53,1.62-4.33-6.79,4.51-1.63Zm.75-.27c11.44-4.5,12.63-4.96,22.41-9.3l4.46,6.81c-12.42,5.37-14.01,6.06-22.5,9.28l-4.36-6.79Zm23.3-9.69l-.71-1.12-2.45-3.99-.68-1.13-1.2-2.03c-.28.24-.38.28-.75.37.33.62.75,1.44,1.08,2.07-4.37,1.91-10.21,4.46-14.62,6.29l-3.75-6.63-.04.04c-.11.09-.2.15-.32.2.21-.09.41-.25.53-.5.25-.5.19-1.17-.05-1.8.02.04.04.07.06.12,12.9-5.42,22.06-9.39,46.74-21.94l2.05,3.48c-13.13,6.61-17.1,8.61-31.3,15.24.01,0,.01.01.02.02-.61-.73-1.52-1.18-2.41-.83-1.23.66-.83,2.26-.19,3.12,1,1.33,2.68,1.53,3.21.39.25-.54.17-1.22-.1-1.85.04.08.07.12.1.21,13.64-6.27,14.46-6.64,31.35-15.16l2.1,3.47c-16.13,8.1-19.41,9.65-32.51,15.74l.68,1.13c8.69-4.03,18.53-8.6,33.54-16.24l-2.81-4.61c5.86-3.04,13.66-7.11,19.5-10.19-.05-.06-.07-.09-.11-.14.91,1.01,2.28,1.14,3.15.49-.14.1-.31.2-.55.3,1.3,2.14,3.04,4.99,4.34,7.13-22.43,11.89-34.06,17.8-54.62,27.25l.71,1.12c19.38-8.94,29.44-13.88,54.61-27.25l4.3,6.75c-24.28,12.94-35.99,18.81-54.46,27.3l-4.45-6.81Zm-23.26-8.84c.04.07.09.16.14.25-.05-.09-.09-.17-.14-.25Zm18.05-2.25c.07.1.15.22.22.35-.07-.12-.14-.23-.22-.35Zm88.49,67l3.28-1.73,3.94,3.11-3.22,1.7-3.99-3.08Zm3.31-2.84l-4.14,2.18q-14.38-12.37-27.9-27.04c.43-.47.49-1.08.18-1.73l7.3-3.8c11.96,13.5,12.67,14.3,21.24,22.39.11-.1.22-.18.37-.26-.95.54-.94,1.6.02,2.33,1.27.96,3.3.69,3.62-.48.09-.36.02-.7-.17-1.01,1.76-.95,4.11-2.21,5.87-3.16,2.82,2.52,6.51,5.98,9.41,8.41-3.32,1.79-7.73,4.19-11.06,5.95l-4.74-3.77Zm.05-7.92c-.73-.57-1.9-.82-2.86-.41.09-.04.17-.08.32-.12-12-11.93-12.99-12.91-21.12-22.44l7.57-4.03c10.86,12.7,12.54,14.65,21.65,23.59l-5.9,3.18c.07.04.2.11.35.22Zm-12.12-47.1c-.51-.71-1.42-1.18-2.4-1.04.02,0,.05-.01.07-.02-1.94-2.8-4.53-6.53-6.46-9.33l8.71-4.78,7.17,10.58-7.49,4.13c.07.06.23.23.4.46Zm-2.5-1.02c-.17.04-.35.1-.52.17.18-.08.36-.14.52-.17Zm2.78-15.78l-9.78,5.35-4.35-6.6c6.94-3.8,16.18-8.89,23.1-12.75,3.51,5.53,8.2,12.91,11.79,18.39-3.88,2.18-9.03,5.09-12.92,7.24l-7.84-11.64Zm10.07-14.61l6.75-3.81c3.45,5.55,8.06,12.96,11.57,18.48l-6.57,3.73c-3.55-5.5-8.28-12.86-11.75-18.4Zm7.21-5.52l-4.11-6.8,7.57-4.29,4.05,6.82-7.51,4.27Zm-4.78-7.91c-3.06-5.18-7.15-12.07-10.18-17.26l7.65-4.3c3.03,5.18,7.07,12.1,10.11,17.27l-7.58,4.29Zm-10.84-18.4l-3.65-6.31,7.65-4.32,3.65,6.33-7.65,4.3Zm.87-18.68c13.42-7.71,26.8-15.47,40.26-23.1l3.7,6.28c-13.48,7.66-26.91,15.42-40.38,23.08l-3.58-6.26Zm41.38-23.73l6.82-3.85,3.71,6.28-6.83,3.85-3.7-6.28Zm11.2,3.58l3.63,6.31-6.82,3.86-3.64-6.32,6.83-3.85Zm4.27,7.44l4.25,7.59-6.79,3.87-4.27-7.59,6.81-3.87Zm-1.89,12.6l6.77-3.87,3.49,6.4-6.74,3.87-3.52-6.4Zm7.85-4.48c3.84-2.19,8.96-5.07,12.81-7.23l3.42,6.42c-3.84,2.15-8.92,5.05-12.75,7.21l-3.48-6.4Zm36.09,74.64l5.04,10.7-5.55,3.31-5.31-10.55,5.83-3.46Zm15.98-124.06c-.14-.21-.26-.44-.37-.7.09.24.21.48.37.7Zm13.23-29.91l3.39-1.43q11.47,19.26,20.18,38.74l-3.22,1.41c-9.15-20.03-9.32-20.42-20.35-38.72Zm-.72-1.11l-4.54-6.74,3.41-1.44,4.53,6.75-3.4,1.43Zm-.76.34c-10.82,4.82-13.73,6.11-28.71,13.48l-4.53-6.71c13.24-6.55,16.57-8.15,28.69-13.52l4.55,6.75Zm-29.62,13.94c-19.39,9.93-29.56,15.34-55.48,29.9h.01l.68,1.11c22.6-12.65,35.31-19.61,55.52-29.89,3.28,5.3,7.67,12.36,10.78,17.77-4.65,2.39-10.82,5.58-15.44,8.02l-4.34-7.35c-14.96,7.97-15.54,8.27-23.75,12.78l-2.92-4.77-.05.05s-.07.03-.1.05c.26-.21.49-.5.61-.85.62-1.86-1.39-3.98-3.49-2.96-1.07.65-1.18,1.74-.86,2.61-.02-.05-.03-.06-.05-.12-4.19,2.34-9.79,5.44-13.97,7.8l-1.93-3.13-.69-1.11-4.24-6.73c22.47-12.63,35.11-19.58,55.2-29.88l4.53,6.71Zm-38.43,27.16c-.14-.16-.26-.37-.36-.58.09.21.21.41.36.58Zm-18.12,3.35l-6.74,3.82-4.19-6.74,6.7-3.81,4.23,6.73Zm-11.62-4.01l-5.55-8.69,6.61-3.77,5.64,8.65-6.69,3.81Zm-6.23-9.71l-4.65-7.04,6.51-3.74,4.74,7.01-6.6,3.77Zm-5.33-8.05l-4.22-6.17,6.41-3.68,4.31,6.13-6.5,3.72Zm-6.41-23.34c-5.07,2.93-11.83,6.84-16.89,9.79-2.41-3.32-5.56-7.77-8.03-11.06,14.56-8.48,34.5-20.1,54.75-31.07,12.47,12.5,12.96,13,20.1,21.46-14.01,7.58-20.4,11.04-41.01,22.81-2.68-3.58-6.2-8.4-8.93-11.93Zm-13.22,17.22l-6.45,3.77-3.92-5.96,6.34-3.7,4.03,5.89Zm-40.11,32.35l3.43,6.57c-6.63,3.77-15.48,8.77-22.14,12.49l-3.09-6.71c6.55-3.68,15.27-8.62,21.8-12.35Zm-19.67,19.6l-6.02,3.32-2.98-6.77,5.92-3.27,3.08,6.72Zm-9.47-4.53l-4.26-10.07c3.76-2.08,8.77-4.89,12.53-6.99l2.78,5.97-6.92,3.87,1.78,3.96-5.91,3.27Zm2.48,8.37c-6.04,3.26-14.11,7.56-20.18,10.75l-2.6-6.95c5.96-3.14,13.9-7.38,19.83-10.59l2.96,6.79Zm-21.07,11.21l-5.34,2.73-2.48-7,5.23-2.69,2.59,6.96Zm-13.19-2.89c.05.08.12.24.2.45-.3-.76-.87-1.34-1.54-1.37.01,0,.03-.01.04-.01-.11-.35-.25-.79-.36-1.14l4.96-2.48.83,2.48-4.15,2.08Zm.36,1.05v.05c-.01-.08-.03-.16-.05-.24.02.07.04.11.05.19Zm-2.49-1.72s.07-.01.1-.03c-.76.52-1.05,1.77-.6,2.89.64,1.6,2.23,1.76,2.83.29.18-.45.22-.92.17-1.36,1.25-.62,2.91-1.45,4.16-2.09l2.47,7.01c-3.29,1.63-7.65,3.8-10.95,5.39l-3.34-10.75,4.83-2.36.32,1.01Zm7.12-1.83l-1.21-3.58-5.78,2.9-2.09-6.96c3.22-1.6,7.49-3.79,10.69-5.42l3.6,10.39-5.22,2.68Zm-7.78-.3l-4.81,2.35-1.95-7.02,4.7-2.29,2.07,6.96Zm-5.26,3.85l3.68,11.91c3.53-1.73,8.26-4.03,11.78-5.79.18.47.45,1.1.63,1.57.13-.1.21-.15.31-.2-.75.45-1.02,1.39-.87,2.29,0-.03-.01-.04-.01-.07-17.78,8.75-21.57,10.41-34.8,15.82l-3.04-12.86c-2.86,1.05-6.67,2.46-9.56,3.43l.2,1.18c2.71-.94,6.31-2.19,8.97-3.19l2.77,11.7-3.93,1.48-1.04-4.37-5.33,1.84-1.44-7.45-.2-1.18-.44-2.64c11.82-3.9,21.32-8.32,32.33-13.45Zm15.79,10.56c-.1-.2-.18-.43-.23-.69.04.23.12.47.23.69Zm-40.27,16.92l-4.8,1.65-.71-3.22,4.76-1.63.75,3.2Zm-5.11,3.04l5.4-1.84,1.35,5.2c-2.68.94-6.29,2.08-8.99,2.94l-2.14-9.69,3.4-1.04.98,4.44Zm6.02-2.07l3.94-1.48,1.41,5.17-4,1.51-1.35-5.2Zm5.7,4.87c2.05,6.43,4.84,14.99,7.16,21.34l-4.23,1.57c-2.18-6.39-5.05-14.92-6.95-21.4l4.02-1.51Zm5.26,30.79c-9.89,3.28-14.39,4.77-22.72,5.92l-2.21-6.52c7.32-1.23,10.66-1.78,22.38-5.86l2.54,6.46Zm-22.28,7.11c7.45-1.24,10.85-1.81,22.77-5.93l2.77,6.4c-10.04,3.32-14.62,4.83-23.07,5.98l-2.46-6.45Zm20.48,32.79c9.36-2.09,9.72-2.17,19.27-5.33l4.32,6.79c-10.47,3.35-10.87,3.48-15.89,4.61l5.27,7.72-3.55.71c-2.85-4.33-6.75-10.04-9.42-14.5Zm126.64,69.25s.07.03.11.05c-.03-.02-.07-.03-.11-.05Zm9.33-4.67l-8.63-4.2,5.59-2.74,8.42,4.28-5.39,2.66Zm-2.29-7.31l5.84-2.95,2.67,1.51c4.59-2.37,10.67-5.59,15.23-8.03l2.45,1.52c-4.49,2.41-10.51,5.58-15.02,7.94l2.85,1.45-5.62,2.85-8.39-4.29Zm14.91,1.88c3.5,1.68,8.32,3.58,11.9,5.09l-5.25,2.71c-3.73-1.32-8.58-3.44-12.24-4.94l5.58-2.85Zm24.31-27.49c.11.14.25.26.42.38-.16-.1-.3-.22-.42-.38Zm-27.11-62.79l6.56-3.73c17.87,27.09,31.07,45.22,49.63,63.45l-4.9,2.84c-16.84-15.77-28.8-29.14-51.29-62.55Zm7.63-4.34l7.26-4.16c17.36,27.38,29.95,45.65,46.67,63.77.05-.03.12-.07.18-.11-.7.56-.75,1.39-.06,1.93-.13-.1-.23-.21-.34-.35-1.31.75-3.05,1.75-4.36,2.5-15.83-16.05-27.25-29.65-49.36-63.59Zm54.34,61.63c-.07-.04-.11-.07-.16-.11,1.01.65,2.58.27,2.91-.74.39-1.2-1.23-2.1-2.57-1.53.03-.02.06-.04.09-.06-13.81-15.84-23.82-28.05-46.28-63.95l5.16-2.98c27.16,44.2,47.41,72.59,70.55,86.96-2.04,1.22-4.77,2.85-6.81,4.07-11.11-5.55-14.4-7.64-27.24-19.1l4.36-2.55Zm-50.66-88.34l-.06.06s-.03.02-.04.04c.3-.27.54-.63.67-1.06.57-1.89-1.32-3.73-3.44-2.66-1.07.67-1.35,1.74-1.09,2.63-.01-.01-.02-.03-.02-.04-1.18.67-2.76,1.58-3.94,2.25l-4.04-6.82,12.07-6.93c-.05-.04-.07-.09-.11-.14.9,1.01,2.35,1.01,3.29.22-.27.22-.51.36-.87.48.01.02-.05.02-.07.02,9.49,16.57,10.48,18.3,14.59,25.36l-6.67,3.89c-3.09-5.19-7.2-12.11-10.26-17.31Zm-3.56-.21c-.14-.18-.26-.4-.35-.63.08.22.2.44.35.63Zm3.45-12.59c-.14-.18-.25-.4-.34-.62.08.22.19.43.34.62Zm16.32-12.84c.06.1.13.21.17.33-.05-.11-.1-.22-.17-.33Zm41.64,64.21l-.05.05s-.01,0-.02.01c.26-.25.48-.57.6-.96.12-.4.12-.78.03-1.13,0,.02.01.03.02.05,0,.02.01.05.01.06.73-.43,1.7-1.01,2.43-1.43l5.35,10.52-3.46,2.05-4.91-9.23Zm9.74,7.52l5.53-3.29c1.91,4.06,4.47,9.47,6.39,13.53l-5.1,3.03c-2.05-3.98-4.8-9.28-6.83-13.28Zm.99-15.43c13.61-7.95,15.04-8.79,24.04-13.9l3.79,11.37c-11.58,6.63-13.07,7.49-22.84,13.24l-4.99-10.72Zm24.85-14.35c11.64-6.49,13.43-7.49,22.01-12.03l2.23,10.65c.06-.06.15-.12.23-.18-.65.52-.95,1.69-.63,2.7-.05-.15-.09-.33-.12-.59q-10.31,5.41-19.97,10.85l-3.75-11.39Zm9.32-58.04s-.04.01-.05.02c.22-.18.42-.44.55-.79.21-.61.17-1.3-.05-1.89.06.15.12.29.15.51,5.16-2.57,12.05-5.96,17.23-8.47,1.58,5.38,3.71,12.53,5.12,17.95l-6.77,3.29c.1.21.24.54.32,1.08l6.74-3.19c1.24,5.58,2.91,13.04,3.96,18.67l-7.13,3.49c-1.2-5.11-2.76-11.92-4.1-16.99l-.04.04s-.06.05-.1.07c.19-.15.38-.38.5-.7.61-1.58-.45-3.94-1.86-3.34-1.07.63-1.02,2.23-.65,3.11.45,1.09,1.29,1.42,1.92,1-.09.06-.19.11-.36.16.02.04-.1.01-.14.02,1.35,5.41,3.17,12.61,4.37,18.07,2.34-1.15,5.44-2.7,7.79-3.81l1.34,8.49q-9.86,4.82-15.57,7.81c-3.76-15.37-6.04-24.65-13.16-44.59Zm18.56-10.98l8.06-3.67c1.43,5.43,3.39,12.67,4.64,18.16l-7.62,3.49c-1.49-5.4-3.43-12.61-5.08-17.97Zm5.36,19.14l7.59-3.48c1.07,5.68,2.5,13.24,3.37,18.95l-7.05,3.22c-1.12-5.63-2.6-13.12-3.91-18.7Zm8.22-3.75l2.33-1.01c1.01,5.7,2.35,13.31,3.14,19.04l-2.17.94c-.93-5.71-2.17-13.31-3.31-18.97Zm-.25-1.18c-1.33-5.46-3.08-12.76-4.6-18.18l2.49-1.07c1.38,5.45,3.27,12.73,4.46,18.23l-2.35,1.02Zm-2.45-20.44l-2.49,1.08-1.73-5.64,2.53-1.09,1.69,5.65Zm-5.29-5.44l2.13,6.81-8.09,3.69c-2.18-6.24-5.11-14.54-7.52-20.68l5.75-2.62,3.05,8.12s.07-.02.1-.04c-.81.46-.85,1.84-.41,2.92.66,1.56,2.03,1.93,2.53.69.22-.56.18-1.29-.02-1.96.04.14.08.25.12.42,0,.02.01.05.01.07,1.36-.59,3.18-1.38,4.55-1.97l1.03,3.17-3.23,1.39Zm-7.01-13.13l5.35-2.32,3.47,9.71-4.56,1.98c.05.09.16.35.26.67-.26-.86-.83-1.61-1.48-1.73h.05c-.93-2.49-2.18-5.82-3.1-8.32Zm2.9,8.31c-.11-.01-.22.01-.34.04.1-.04.21-.05.34-.04Zm-18.9-57.88l-3.61,1.46-4.53-6.74,3.63-1.46,4.51,6.74Zm-3.8-7.02c3.92-1.45,9.17-3.36,13.13-4.67l4.43,6.72c-3.94,1.34-9.17,3.2-13.05,4.69l-4.51-6.74Zm-5.09.65l-6.34-8.6,3.61-1.48,6.35,8.61-3.62,1.46Zm-7.12-9.6l-8.35-10.1,3.58-1.49,8.38,10.11-3.61,1.48Zm6.39,9.91l-3.41,1.43-6.33-8.58,3.4-1.45,6.34,8.6Zm-4.18,1.76c-11.03,4.92-13.64,6.09-28.68,13.53l-6.16-8.51c13.16-6.57,16.47-8.17,28.52-13.59l6.32,8.58Zm-29.59,14c-19.26,9.93-29.38,15.34-55.14,29.87l-5.65-8.65c22.24-12.56,34.74-19.47,54.62-29.74l6.16,8.52Zm-18.69-14.35c-13.99,7.43-24.1,12.79-48.22,26.56l-4.32-6.13c19.74-11.23,25.54-14.48,42-23.33-11.84-13.52-12.81-14.62-20.92-22.37l5.36-2.88c11.48,11.21,14.21,13.88,26.1,28.15Zm-32.28-26.04l-5.17-4.67,5.26-2.83,5.26,4.63-5.35,2.87Zm-.86.47c-12.29,6.73-26.2,14.36-55.56,31.56,2.59,3.58,6.09,8.32,8.63,11.94l-6.32,3.7c-3.4-4.93-7.93-11.49-11.42-16.36-.04.04-.08.05-.11.08.24-.21.45-.49.55-.81.12-.41.08-.8-.07-1.15,0,.01.01.01.02.03,36.02-20.87,40.65-23.56,59.14-33.66l5.15,4.67ZM80.96,118.6c.14-.13.25-.22.39-.29-.92.53-1.24,1.86-.74,2.92-.11-.23-.19-.45-.23-.75-11.85,6.32-13.37,7.13-21.8,11.34l-1.5-6.61c5.19-2.63,12.08-6.21,17.23-8.91-1.08-3.59-2.57-8.37-3.62-11.97l4.62-2.49c1.68,5.04,3.92,11.76,5.66,16.77Zm-10.55-15.26l-1.65-5.86,4.41-2.39,1.82,5.78-4.59,2.47Zm-12.56,28.84l-4.35,2.12-1.33-6.7,4.21-2.04,1.48,6.63Zm.25,1.07c1.23,4.82,2.84,11.26,4.17,16.05l-4.68,2.29c-1.19-4.86-2.8-11.32-3.87-16.21l4.37-2.13Zm-30.94,45.42l1.42,7.45-3.39,1.03-1.32-7.48,3.29-1Zm.14,20.7c2.9-.85,6.71-2.15,9.58-3.1,1.97,6.46,4.66,15.06,6.92,21.42-9.72,3.23-14.16,4.71-22.32,5.84-1.8-6.46-4.14-15.1-5.61-21.64l-.02.02c.61-.61.03-4.33-1.05-4.37-.4.09-.51.86-.42,1.74-.01-.01-.01-.03-.01-.04-.76.04-1.78.1-2.54.14l-1.33-8.37c6.45-.52,6.7-.54,14.39-2.52l2.4,10.88Zm-9.99,24.43l-2.36-.06c-1.79-6.93-4.06-16.2-5.44-23.22l2.18.07c1.54,7,3.7,16.32,5.63,23.21Zm.37,1.21l2.14,6.52-2.4-.07-2.1-6.52,2.36.07Zm.14,7.64l2.41.07,2.4,6.45-2.44-.07-2.37-6.45Zm5.28,7.7l2.69,6.39-2.49-.07-2.64-6.39,2.45.07Zm.42-.01l3.47-.22,2.73,6.39-3.51.23.51,1.14,3.52-.23c8.2,16.42,9.46,18.94,17.88,31.47.03-.01.07-.01.1-.02-.41.21-.03,1.21.68,2.14.9,1.17,2.01,1.91,2.35,1.58.23-.25.05-.83-.34-1.48l3.7-.46c14.3,18.27,35.91,45.89,81.67,63.72-2.21.39-5.17.9-7.4,1.08-48.93-20.31-77.58-47.74-102.17-97.8l-.51-1.14-2.69-6.4Zm31.65,40.44l3.55-.7c14.31,18.26,35.95,45.85,81.12,63.67l-3.06.75c-19.89-8.41-49.94-21.12-81.6-63.72Zm4.15-.83c2.27-.59,5.3-1.31,7.55-1.96-.04-.04-.05-.07-.09-.12.73.81,1.6,1.27,2.17,1.2h-.01c2.1,2.77,4.88,6.45,6.97,9.21l-1.57.47c-.67-.65-1.52-1.14-2.23-.99-.89.34-.17,1.65.59,2.43.76.78,1.65,1.22,2.23,1.19-.02,0-.03.01-.04.01.03.03-.1-.01-.15-.01,13.8,15.01,23.77,25.86,48.37,40.5l2.78-.89c6.39,3.33,15.03,7.56,21.66,10.41-2.16.67-5.02,1.62-7.18,2.22-19.63-8.39-49.29-21.09-81.03-63.66Zm89.26,61.84l6.59,2.36c-2.11.67-4.89,1.61-7.01,2.2l-6.74-2.33c2.15-.66,5.03-1.5,7.16-2.23Zm12.99,3.52c.09.02.18.05.3.08-.1-.03-.19-.06-.3-.08Zm81.15-48.08l4.87-2.84c12.07,10.58,15.48,13.16,27.48,18.97l-3.42,2.03c-11.87-5.15-15.38-7.12-28.93-18.17Zm32.92,16.37l1.6.61-3.3,1.96-1.69-.56,3.39-2.01Zm.55-.33c2.18-1.3,5.09-3.04,7.26-4.34-21.26-13.82-39.05-35.92-70.49-87.55l6.66-3.88c32.64,55.35,48.59,76.45,68.3,90.29-3.04,1.83-7.11,4.28-10.16,6.1l-1.58-.62Zm-20.95-56.37c.04.05.07.13.1.2-.03-.07-.06-.14-.1-.2Zm25.79,15.9l1.23,2.2-7.84,4.67-1.39-2.1,8.01-4.77Zm-15.7,3.18c.01.06.03.12.05.18l4.06-2.4,2.34,3.56-1.59.95,2.39,3.42,1.54-.92c1.98,2.84,4.73,6.56,6.79,9.35l-4.18,2.49c-3.97-4.62-4.26-5.02-11.78-15.14-.03.03-.06.05-.09.07.2-.18.38-.41.48-.69.09-.31.08-.6,0-.87Zm6.92,2.03l1.41,2.1-.79.47-1.43-2.08.81-.49Zm-6.95-2.11c-.03-.09-.08-.17-.13-.25.05.09.1.17.13.25Zm19.64,4.97c.12.12.24.22.32.41l.46-.27,1.15,1.93-1.4.83c-.17-.28-.41-.67-.59-.96-.15.13-.33.2-.5.27.43-.18.8-.5.94-1,.12-.48-.06-.92-.37-1.22Zm2.97,2.29l4.12-2.45c1.38,2.63,3.21,6.14,4.64,8.76l-3.57,2.14c-1.58-2.52-3.67-5.88-5.19-8.44Zm3.78-3.1l-4.16,2.47-1.12-1.94,4.26-2.54,1.02,2.01Zm-.34-2.42l3.39-2.01.92,2.08-3.31,1.96-1-2.02Zm-5.32,2.31l-2.64-4.71,4.55-2.71,2.4,4.85-4.3,2.56Zm1.55-8.14l-4.58,2.73-1.21-2.21,4.68-2.79,1.11,2.27Zm-.37-2.72l2.73-1.62,1.04,2.31-2.68,1.59-1.09-2.28Zm-5.83,2.5l-4.49-8.41,5.07-3.02,4.14,8.63-4.72,2.81Zm-5.32-26.3c12.6-7.4,14.22-8.35,22.72-13.18l1.01,3.18c.06-.04.14-.08.2-.12-.77.6-.98,1.76-.64,2.56.02.04.05.1.08.15.65,1.21,2.18.92,2.62-.52.12-.37.14-.71.09-1.04.01.03.01.04.02.07,17.26-9.5,19.19-10.48,25.54-13.7-.01-.03-.01-.06-.02-.08.02.09.05.19.09.28.2.5.52.73.83.72h-.01s.34,3.33.34,3.33l-5.57,2.85c.02.05.04.14.06.22-.18-.76-.68-1.27-1.35-.97-.82.5-1.06,1.79-.8,2.71.02.08.06.18.09.26.22.54.59.76.96.72-.01,0-.01.01-.02.01.13.98.31,2.28.44,3.26-14.02,7.5-21.93,11.97-40.35,22.85-1.89-4.07-4.43-9.5-6.32-13.57Zm25.94-9.51c.03.07.05.17.08.26-.03-.09-.04-.18-.08-.26Zm25.58-13.94c0,.21.03.43.06.61-.03-.16-.05-.36-.06-.61Zm-4.92,10.73c.07-.04.15-.05.21-.12l-.02.02c-.06.06-.13.06-.19.1Zm6.85-5.91l-.33-3.33s-.02.01-.03.02c.13-.13.27-.32.38-.56.63-1.42.09-3.52-1.06-3.04-.63.36-.89,1.25-.89,2.03v-.04c-6.64,3.37-12.38,6.28-25.7,13.77.02.05.05.13.09.19-.32-.67-.98-1.04-1.67-.76.03-.02.06-.04.08-.05-.25-.98-.59-2.27-.84-3.23,11.29-6.31,12.47-6.97,19.91-10.92.56,1.1,1.67.91,2.12-.38.55-1.57-.32-3.26-1.39-2.8.02,0,.03-.02.04-.02-.6-3.2-1.4-7.46-2.01-10.65,10.5-5.39,10.7-5.49,15.49-7.77l1.15,9.51,4.86-2.25c.2,4.55.54,10.6.6,15.15-3.26,1.5-7.58,3.54-10.8,5.12Zm12.35-27.33l-.33-3.76-.11-1.12-1-8.66,2.15-.93.91,8.7-2.05.88.11,1.12,2.04-.89.28,3.79-2,.85Zm1.25-14.7l5.16-2.08.65,8.81-4.91,1.97-.9-8.71Zm5.05-3.23l-5.19,2.1c-.86-5.74-2-13.38-3.08-19.07l5.63-2.29c.85,5.77,2.01,13.47,2.64,19.27Zm-2.1-19.48c2.4-.85,5.59-2.01,8.03-2.79.58,5.34,1.42,12.46,1.81,17.81.03-.02.07-.03.11-.05-.45.33-.64,1.59-.52,2.68-.03-.21-.04-.43-.05-.72-2.03.7-4.76,1.61-6.77,2.36-.72-5.8-1.66-13.52-2.6-19.29Zm-6.42,1.31c-1.28-5.48-2.94-12.81-4.41-18.24l6-2.44c1.27,5.5,3,12.84,4.07,18.39l-5.66,2.29Zm.6-26.69c-.11.1-.2.15-.3.19.16-.06.31-.17.43-.39.7-1.28-.34-4.36-1.7-3.99-.71.36-.75,1.67-.4,2.75-.03-.09-.06-.16-.09-.27-1.61.64-3.74,1.49-5.35,2.13l-1.02-3.17c3.13-1.25,7.31-2.93,10.49-4.1-6.07-18.25-6.56-19.73-12.52-32.85-2.52.95-5.9,2.17-8.4,3.16.16.24.26.44.36.64-.49-1.05-1.42-1.91-2.22-1.72.03-.01.05-.03.08-.04-3.5-6.73-8.32-15.64-12.25-22.13,3.9-1.46,9.1-3.37,13.04-4.69,13.15,22.87,18.92,34.4,27.37,65.16.04-.02.09-.04.14-.07-.41.26-.54,1.02-.44,1.85,0-.01-.01-.02-.01-.03-1.79.64-4.17,1.51-5.96,2.16l-1.26-4.59Zm-24.36-72.5l5.52-1.55,4.38,6.72-5.49,1.56-4.41-6.73Zm6.07-1.69l3.47-.77,4.34,6.71-3.44.78-4.37-6.72Zm-3.82-11.61c-3.19-3.8-7.34-8.96-10.7-12.63l1.71-.31c3.22,3.78,7.64,8.73,10.7,12.64l-1.71.29Zm2.5.73l6.26,8.63-1.7.3-6.27-8.63,1.71-.3Zm13.98,20.86l-1.67.31-1.99-3.35,1.68-.29,1.98,3.34Zm-1.51-3.42l1.59-.22,1.15,1.93s.07-.01.11-.03c-.4.21-.05,1.31.58,2.33-.14-.23-.26-.45-.42-.74-.31.02-.72.05-1.03.08l-1.98-3.35Zm-2.84-.72l-4.34-6.72,1.7-.3,4.33,6.71-1.69.31Zm12.99,19.65l-4.47-8.93,3.03-.39c3.45,7.18,7.82,16.87,10.78,24.26l-.87.09,4,11.89-4.81.84c-2.93-8.26-7.21-19.14-10.7-27.18l3.04-.59Zm9.31,16.18l.48-.05,3.54,10.7-.46.05-3.56-10.7Zm4.76,11.82l-3.89-11.91.43-.03c5.89,18.44,6,18.79,8.16,29.35l-1.19.1c-1.26-5.23-2.87-12.24-4.35-17.42l.84-.09Zm4.94,18.61l.52,2.77-1.17.1-.54-2.76,1.19-.11Zm-.79,4.11l1.87-.16-.73-3.97c1.49.04,3.48.07,4.94.34-.01-.03-.01-.06-.01-.09.18.85.42,1.52.61,1.75h-.01c.2,1.32.47,3.07.66,4.39-3.75-.53-4.43-.63-8.77-.01l-.67-3.57-2.5.49-.5-2.38,4.34-.74.76,3.96Zm-4.36.36l2.1-.41.44,2.36-1.55.29c.04.12.11.45.17.83-.17-1.06-.59-2.09-1.05-2.24.02.01.03-.02.05-.01-.04-.25-.11-.58-.16-.83Zm-.26.93s.06,0,.08-.01c-.36.31-.46,1.34-.19,2.5.33,1.41.99,2.22,1.37,1.65.24-.36.28-1.04.19-1.76.01.04.01.06.02.09v.07c.47-.08,1.08-.2,1.54-.28l1.59,10.53-1.09.19-.71-5.05-3.14.71-1.7-9.02,1.88-.45.16.82Zm3.11,13.06l-2.68.61-.59-3.82,2.73-.63.54,3.85Zm.07,4.65l.49-.1.83,9.3-.46.09-.86-9.29Zm4.21,16.94l2.75-.17-.04,4.18-2.67.14-.04-4.15Zm-30.23-106.9l-1.59.22-4.33-6.72,1.61-.21,4.31,6.71Zm-5.05-7.79l-1.6.21-6.26-8.63,1.63-.21,6.23,8.63Zm-29.61-29.94v.03s-.03.01-.04.02c.18-.28-.31-1.03-1.02-1.72.13.13.28.26.44.45,2.88-.39,6.74-.72,9.65-.75l7.29,7.25s.05-.03.08-.03c-.27.05.24.86,1.17,1.83-.13-.13-.25-.26-.43-.45-1.79.04-4.18.05-5.96.24,3.45,4.01,8.15,9.26,11.4,13.41l-1.62.22c-3.45-4.11-7.97-9.66-11.59-13.6l-2.19.39-7.2-7.29Zm4.1,9.15l3.47-.8c3.22,3.78,7.64,8.72,10.7,12.62l-3.51.77.8,1.02,3.5-.76,6.27,8.64-3.47.77-6.3-8.65-.8-1.02c-3.18-3.79-7.32-8.94-10.66-12.59Zm10.92,13.75l6.3,8.64-5.53,1.56-6.34-8.65,5.57-1.55Zm-6.16,1.73l6.33,8.65c-3.96,1.34-9.23,3.19-13.14,4.67l-6.35-8.61c3.93-1.48,9.18-3.39,13.16-4.71Zm-43.37-41.46l6.07,4.36c-9.12,3.34-9.67,3.53-16.55,6.52l.92.72c10.08-4.21,10.9-4.56,16.59-6.52,14.42,11.91,21.01,17.34,35.54,35.36-3.97,1.35-9.24,3.21-13.15,4.71l-9.24-11.07-4.27,1.77c-13.44-14.15-14.24-15-25.47-24.25l-.92-.72-5.85-4.41c9.71-4.1,10.73-4.53,16.33-6.47Zm-17.01,6.76l5.84,4.41c-10.85,4.94-11.51,5.24-19.53,9.24l.87.74c11.46-5.59,12.66-6.18,19.58-9.25,14.31,12.3,15.17,13.03,25.43,24.25l-2.44,1.06c.44.39.54.5.83.96.73-.32,1.71-.74,2.44-1.06l8.35,10.1-3.39,1.44-7.29-8.9-.04.04s-.12.05-.18.08c.12-.07.25-.14.32-.27.61-1.2-1.77-3.69-3.49-3.05-.95.51-.52,1.76.42,2.63.77.71,1.71,1.01,2.37.87-.04.01-.09.04-.13.06,2.19,2.66,5.09,6.21,7.26,8.87-10.97,4.95-13.57,6.13-28.5,13.59l-7.01-8.89c-.11.09-.18.14-.26.2.21-.15.4-.33.51-.58.21-.52.07-1.11-.27-1.64.04.06.08.09.12.16,3.18-1.58,7.44-3.67,10.63-5.24-13.08-14.5-13.85-15.36-25.25-25.45l-.87-.74-5.54-4.51c11.51-5.65,12.44-6.1,19.24-9.15Zm-20.03,9.54l5.53,4.52c-4.67,2.39-10.88,5.59-15.53,8.04l-5.27-4.62c4.57-2.4,10.67-5.58,15.27-7.93Zm-20.98,4.39l4.02,3.28-5.24,2.83-3.94-3.33,5.16-2.78Zm-13.15-8.33c-.17-.09-.33-.2-.46-.32.13.12.29.22.46.32Zm.28.15c-.06-.03-.08-.05-.13-.07.93.45,2.04.45,2.7.09-.12.07-.25.14-.47.19l9.91,7.27-5.15,2.78-5.47-4.29c-3.42,1.89-7.99,4.39-11.39,6.3l-5.05-3.98c4.51-2.5,10.53-5.83,15.06-8.29Zm-15.88,8.75l5.03,3.99c-36,20.33-71.12,42.21-107.36,62.14l-1.84-5.77c35.13-19.44,69.21-40.65,104.18-60.36Zm-111.45,55.11c-17.8,9.35-54.85,28.81-56.19,14.93l2.64-7.08c.97,7.15,8.45,10.23,56.17-15.45,1.09,3.69,2.52,8.63,3.64,12.32l-4.39,2.37-1.87-7.09Zm-17.58,18.08c8.84-4.34,10.19-5,19-9.66l1.63,5.88c-4.32,2.27-10.1,5.26-14.46,7.47-.24-.64-.73-1.05-1.36-.78-.93.54-1.02,1.95-.79,2.75.03.08.06.19.1.26.36.83,1.02,1,1.54.58-.11.09-.2.14-.37.2.54,3.08,1.27,7.2,1.81,10.28l-4.18,2.03c-.94-5.7-2.16-13.3-2.92-19.01ZM5.45,141.1c3.94.98,12.14,3.01,46.04-13.18l1.31,6.71c-13.2,6.15-37.79,17.6-48.13,13.99l.77-7.52Zm-.86,8.72c4.55.99,13.02,2.83,48.44-14.11,1.12,4.88,2.57,11.39,3.81,16.24-17.03,8.01-23.18,10.28-34.15,13.94-.17-.84-.53-1.53-1.05-1.43-.7.28-.77,1.85-.61,2.83.01.05.02.12.04.17.18.87.54,1.36.9,1.39-.04,0-.08,0-.11.01l1.31,9.77c-6.99,1.73-10.5,2.59-15.77,2.32.03.22.08.6.1,1.14,4.99.05,7.27.07,15.85-2.27l1.31,7.49c-8.46,2.11-8.63,2.15-14.68,2.51l1.49,9.57-2.18-.07c-.62-4.69-1.59-10.93-2.04-15.62h-.02s-.02.02-.03.03c.61-.4.21-4.29-.47-4.49-.44.04-.46,1.56-.34,2.57.1.9.33,1.61.56,1.85h-.01c.59,4.69,1.25,10.96,2.02,15.63l-1.37-.18c-.7-5.51-1.7-12.87-2.16-18.41l-1.05-.24-.47-12.96,1.69.39v-5.71s-1.64-.39-1.64-.39l.61-11.95Zm2.57,33.92c-.05.01-.11,0-.18-.06.06.06.12.07.18.06Zm-3.2-20.75l1.37.35v3.26l-1.4-.34.03-3.27Zm3.84,59.48l.57.42c1.21,4.27,3.2,9.87,4.59,14.09l-.6-.43c-1.53-4.17-3.19-9.86-4.56-14.08Zm8.78,23.55l-.61-.44-3.17-7.86.6.43,3.18,7.87Zm-3.39-8.89c-1.54-4.17-3.22-9.87-4.6-14.1l-.34-1.2c-5.95-24.78-6.56-31.65-7.06-55.69.67.51,1.75.91,2.5,1.28l.45,12.95-.96-.33c1.77,18.53,1.95,20.47,5.2,35.12h.08c-.26.07-.15,1.15.14,2.22.35,1.28.84,2.27,1.08,2.16.49-.22-.5-3.93-1.15-4.36h.04c-3.67-18.52-3.97-20.04-5.08-33.82l.72.24c.5,4.7,1.04,10.99,1.71,15.66.03,0,.07-.02.11-.03-.33.02-.32,1.17-.1,2.31.23,1.31.65,2.29.92,2.15.53-.28-.16-4.17-.79-4.46h.01s.1.08.14.11c-.54-4.7-1.38-10.95-1.74-15.67l.78.19c.58,5.16,1.25,12.06,2.04,17.2l-.5-.1c.04.16.13.6.19,1.14,0,.02,0,.04.01.06.14.03.35.07.49.1,1.04,5.12,2.33,11.96,3.59,17.04l-1.7-.41c.06.18.19.62.3,1.14l2.03.53c-1.23-5.46-2.94-12.73-3.92-18.24l1.37.18c1.46,7,3.55,16.32,5.42,23.22-1.95-.38-4.54-1.07-6.35-1.89l.34,1.2c1.83.78,4.4,1.56,6.37,1.89l2.09,6.52-3.62-.66s.04.11.05.15c-.34-.9-.77-1.74-1.09-1.89-.36-.05-.11,1.18.32,2.35.33.87.69,1.58.97,1.86h-.01c.54,1.48,1.25,3.46,1.78,4.94l-2.25-1.07Zm5.56,8.71l-2.57-6.37c1.22.24,2.85.68,4.09.79l2.64,6.39c-1.25-.23-2.95-.43-4.16-.81Zm7.46,19.32c.06.06.1.09.13.1-.03-.01-.08-.04-.13-.1Zm2.83,4.53l-1.42-2.35.44.26,1.42,2.35-.44-.26Zm.7.41l-2.05-3.43-.7-.41c-.17-.3-.41-.69-.58-.99-.01,0-.01-.01-.02-.01.09-.06-.1-.55-.44-1.17,1.91.83,4.63,1.51,6.68,1.91l3.49,5.83c-1.96-.31-4.51-1.07-6.38-1.74Zm6.77,1.78l-3.49-5.84,1,.06,3.5,5.84-1.01-.06Zm29.48,40.51l-2.13-1.87,1.38.56s-.06-.04-.08-.06c.68.58,1.31,1.05,1.68,1.25l.94.81-1.79-.69Zm2.12.79l-.94-.81h-.02c.19-.22-2.72-2.79-3.52-3.09-.03,0-.06-.01-.08-.01-.12.04.22.47.82,1.04h-.01s-.03-.05-.05-.06c-.39-.23-.97-.4-1.38-.57l-3.63-3.38c1.72.68,4.17,1.17,5.99,1.52l6.63,6.05-3.81-.68Zm4.22.71l-6.63-6.04,1.02.06c1.64,1.49,3.82,3.46,5.47,4.94h.03c-.26.05,0,.5.6,1.09,0-.01-.01-.01-.01-.02l-.48-.03Zm.53.08c.15.15.35.32.55.48-.25-.21-.45-.38-.55-.48Zm61.98,34.56c-.79-.23-1.59-.43-2-.49h.06c-16.93-6.21-18.7-6.85-31.23-13.55l.96.03c13.65,7.23,14.72,7.62,32.58,13.99h-.43s.04.01.06.02Zm.72-.02c-15.49-5.26-16.52-5.79-33.59-14.57l-1.34-.04c-16.04-9.98-17-10.58-27.36-19.21.14.01.34.03.48.03-.04-.03-.06-.05-.1-.08,1.01.79,1.99,1.31,2.22,1.16.48-.33-2.59-2.87-3.57-2.95.06,0,.12.01.25.05l-6.33-5.87-1.43-.07c-15.11-15.93-15.4-16.24-27.58-34l1.42.08-4.83-8.05-1.41-.07c-2.63-5.11-6.21-11.87-8.59-17.1l2.49.07c9.98,20.25,36.49,74.06,103.31,98.23,2.34-.25,5.46-.65,7.77-1.1l6.83,2.33c-2.57.45-6.03.96-8.64,1.15Zm9.1-1.25l-6.82-2.33,3.05-.75,6.75,2.33-2.99.75Zm35.93,7.08c-18.38-2.28-19.48-2.42-34.81-6.73l2.98-.75c17.74,4.75,18.81,5.04,34.47,6.75l-2.64.73Zm21.86.23c-.84.06-1.68.14-2.12.23.02,0,.03-.01.05-.01-5.59-.02-13.06-.03-18.66-.37l2.63-.74,10.25.46s.07-.05.13-.06c-.05.01-.09.02-.13.06,0,.01.01.02.01.03.19.15,1.35.15,1.7.15,1.14-.02,2.74-.16,2.78-.35-.09-.08-.54-.12-1.11-.14h.12s2.5-.77,7.29-2.67l6.9-.16c-6.76,2.62-6.9,2.68-9.86,3.56Zm10.3-3.74l-6.88.16c7.34-3.13,7.63-3.26,12.64-5.66l1.46.02c-.17.21.39.35,1.34.32,1.29-.04,2.76-.38,2.85-.65.05-.14-.26-.21-.72-.24h.07s5.75-2.56,23.32-12.31l2.07.11c-9.19,5.1-23.07,12.8-36.15,18.25Zm53.58-21.37c-5.08,2.98-5.79,3.38-12.56,7.21l-4.91.55c2.52-1.4,5.86-3.29,8.37-4.71l3.14-.23,4.67-2.72,1.29-.1Zm3.3-5.28l3.64.09c-2.56,1.53-5.98,3.55-8.56,5.06q-1.05.1-1.62.36l1.14-.06-4.23,2.45-2.28.15c1.11-.64,2.6-1.5,3.71-2.15-.04.01-.06.01-.1.01,1.04-.1,2.19-.48,2.3-.77.17-.44-2.02-.33-3.18.29-.08.05-.16.1-.22.17-.14.18.07.3.49.33h-.07l-3.76,2.16-6.58.04q8.23-4.69,12.87-7.41l4.64.36,1.82-1.08Zm-8.8,5.93c.1.01.22,0,.35-.01-.12.01-.25.02-.35.01Zm8.09-5.97l-1.35.79-3.87-.34,1.42-.83,3.79.38Zm-3.98-.78l-1.73-.27,2.38-1.39,1.68.3-2.33,1.37Zm2.85-1.68l-1.66-.31-.69-.14-1.92-.44c2.45-1.45,5.73-3.38,8.17-4.82l1.71.55c-2.38,1.41-5.56,3.3-7.95,4.71l.69.14c2.37-1.4,5.52-3.27,7.88-4.67l1.46.41c-2.31,1.37-5.38,3.2-7.69,4.57Zm40.89-14.69c-6,3.72-11.97,7.5-17.95,11.25-8.84.01-9.01.01-14.14-1.28l-.59-.15-1.45-.42,3.26-1.94,1.36.46-3.16,1.9.59.15,3.13-1.88c2.61.59,6.09,1.41,8.75,1.71.04-.05.09-.08.16-.12-.06.03-.12.07-.16.12-.21.22.01.39.52.39.78-.01,1.8-.37,1.85-.66.05-.36-1.39-.33-2.19.13.06-.03.12-.07.22-.11-2.6-.45-6.1-1.03-8.65-1.76l-.55-.17-1.35-.47c3.01-1.81,7.03-4.23,10.05-6.04l.5.3s.07-.03.1-.05c-.3.24-.36.53-.14.75-2.75,1.65-6.41,3.86-9.16,5.51l.55.17c2.72-1.63,6.34-3.81,9.05-5.45-.02-.01-.03-.02-.04-.02.71.22,1.7-.09,1.81-.59.14-.57-.95-.95-1.83-.53.06-.02.08-.06.14-.08-.14-.09-.35-.21-.5-.31l5.59-3.38c-.05-.02-.06-.04-.1-.05.62.33,1.56.07,1.74-.5.22-.67-.78-1.24-1.67-.75.07-.04.13-.07.22-.11-1.9-1.99-4.45-4.65-6.25-6.74-.01.01-.02.01-.03.02.16-.15.27-.33.33-.53.1-.43-.11-.81-.47-1.05.11.07.24.16.35.33l4.26-2.52c5.26,7.46,7.44,10.54,12.25,14.49-5.02,3.08-10.02,6.18-15.02,9.28.18,0,.32-.01.49.03,3.02-.55,6.09-3.75,8.71-5.37,1.91-1.19,4.48-2.77,6.39-3.95-4.05-3.64-5.73-5.16-12.23-14.82l3.54-2.12c4.2,7.29,7.82,13.58,11.72,16.95Zm-11.45-17.81c-1.37-2.64-3.2-6.15-4.55-8.82l3.93-2.33-1.49-3.45-4.1,2.44-2.37-4.87,3.38-2-1.68-3.84-3.5,2.08-4.08-8.65c18.56-10.96,26.8-15.61,40.09-22.69l.32,2.6c-4.27,2.28-9.94,5.36-14.18,7.7l1.17,4.95-1.32.74.2.85,1.31-.74c1.15,5.5,2.6,12.85,3.6,18.38l3.65-2.02.38,3.91c-2.22,1.23-5.19,2.87-7.4,4.13-.73-3.16-1.71-7.39-2.49-10.53l-3.73,2.15-2.19-7.09c2.32-1.33,5.42-3.08,7.74-4.4l-.87-3.77-.2-.85-.72-2.94c-4.91,2.81-11.45,6.57-16.35,9.42.13.18.2.36.26.56-.24-.84-1.08-1.38-2.07-.86-1.06.7-1.06,1.93-.65,2.56.71,1.08,2.33.65,2.72-.71.09-.32.08-.61.02-.9.01.05.03.09.04.15,4.66-2.72,10.88-6.31,15.56-8.98l.52,2.08-6.53,3.72c-.2-.3-.78-.92-1.71-.32-.89.72-.86,1.84-.56,2.41.12.24.51.78,1.29.66l.58,1.77-7.9,4.62c-.54-1.31-1.26-3.06-1.79-4.37-.25.23-.44.35-.74.44l2.15,5.12c2.55-1.52,5.98-3.5,8.54-4.99l2.23,7.05-6.41,3.74c1.54,3.85,3.59,8.96,5.14,12.8l-5.24,3.11Zm12.86-11.34l-2.73,1.58c-.83-2.86-1.92-6.66-2.78-9.51l3.12-1.8c.72,2.92,1.7,6.81,2.38,9.74Zm-8.72-18.33c.39-.41.58-.96.54-1.55l6.49-3.69.7,2.93-7.16,4.09-.57-1.78Zm-3.11,14.09l5.71-3.34c.92,3.03,2.15,7.07,3.04,10.1l3.23-1.86.6,2.69c-2.35,1.36-5.49,3.18-7.83,4.56-1.42-3.64-3.33-8.5-4.75-12.15Zm15.89,28.13c-.99.57-2.31,1.33-3.3,1.92.01.01.01.04.01.05-.09-.25-.38-.42-.7-.23h.01c-2.32-5.72-4.68-11.41-6.94-17.14,2.32-1.36,5.41-3.17,7.74-4.52.61,3.01,1.42,7.02,1.96,10.04-.15.09-.35.22-.5.32.02.05.02.11.03.15-.1-.42-.42-.69-.86-.46-.54.36-.61,1.03-.49,1.4.01.04.04.1.06.14.07.14.17.22.27.27t-.04-.02c.46,2.03,1.01,4.77,1.42,6.82l1.17-.68.14,1.93Zm6.86-5.92c-2.67,1.21-3.53,1.69-6.77,3.47-.23-2.14-.54-4.99-.84-7.13,1.53-.86,3.58-1.98,5.12-2.83-.17,2.13-.34,4.97-.62,7.1,1.06-.54,2.47-1.23,3.55-1.72l-.43,1.11Zm18.97-45.6s.01-.04.01-.07c-.03.45,0,.72.04.83.06.22.16.32.28.28h-.01c-3.37,15.36-5.8,26.45-15.04,41.98-.98-.02-1.32.04-3.49.87l.81-2.4c2.4-.98,2.78-1.13,4.05-1.34,5.94-12.46,7.82-16.88,11.53-35.34-1.62.7-3.78,1.63-5.38,2.36-1.68,13.15-1.71,13.41-3.25,19.64.67-.5,1.87-6.87,3.54-18.93,1.37-.61,3.2-1.43,4.6-2.01-2.98,14.21-4.22,20.1-10.77,33.63-1.68.42-1.93.48-4.14,1.43l1.37-5.26-3.06,1.52.46-5.08c4.83-2.43,5.02-2.52,7.26-3.5.01-.02.01-.07.02-.09-.07.37-.08.67-.02.8.11.24.4-.04.68-.66.43-.93.6-2.12.2-1.96-.22.1-.5.6-.7,1.18-4.08,1.87-4.41,2.02-7.74,3.75l-.45,5.7-1.95,1.04c.02-3.33.02-7.77-.11-11.1,5.98-3.16,6.35-3.36,9.3-4.77.02-.2.05-.35.08-.5-.03.16-.06.34-.08.5-.03.35-.01.62.06.79.18.44.61.12.92-.66.38-.97.37-2.12-.11-1.98.02-.01.04-.03.06-.03.55-4.88,1.18-11.41,1.45-16.32,6.29-2.96,6.53-3.08,9.57-4.31Zm-11.15,28.45c.03-.12.07-.28.14-.51-.05.17-.1.35-.14.51Zm1.16-24.8l-2.09,1.04v.86l2.05-1.03c-.28,4.89-.74,11.4-1.28,16.27.02-.02.05-.04.08-.05-.25.2-.49.66-.62,1.17.01-.04.02-.07.02-.11q-5.23,2.52-9.46,4.8l-.19-2.92,3.1-1.67-.14-4.76c1.86-.97,4.33-2.27,6.21-3.2l.23-8.49v-.86c-.1-3.68-.18-8.61-.39-12.3l-.05-.93-.13-1.9-.03.03c-.18.15-.22.18-.41.24.01.57.02,1.32.03,1.89l-2.77,1.43-.31-3.06,2.15-1.11s-.01-.06-.02-.09c.04.16.09.31.11.37.4.88,1.2.72,1.63-.33.54-1.35.09-3.13-.94-2.7-.55.32-.83,1.08-.87,1.82v-.04c-.65.34-1.51.79-2.16,1.13l-.31-2.61,6.05-3.1.38,6.81-2.41,1.22.05.93,2.39-1.2c.04,3.74.15,8.73.08,12.46Zm-4.08-15.45c0,.18.01.37.04.54-.03-.17-.04-.35-.04-.54Zm4.48,1.79l-.35-6.82c3.06-1.48,7.14-3.42,10.23-4.82l-.28,7.14c-2.9,1.32-6.74,3.11-9.6,4.5Zm11.86-5.07c0,.18.01.34.02.47-.01-.15-.02-.32-.02-.47Zm.69-2.37c.09-.08.14-.11.19-.14-.44.22-.83,1.29-.87,2.35v-.17c-.55.21-1.29.51-1.84.72l.32-7.16,2.56-1.09-.36,5.49Zm.41-6.55l-2.59,1.1.06-4.85,2.7-1.15-.16,4.9Zm3.42-1.37l-3,1.2.21-6-3.16,1.36c-.14-4.56-.27-10.63-.56-15.17l1.5-.66.36,8.82,5.24-2.17-.58,12.61Zm-4.19-11.74l-.31-7.75,1.3-.56s0-.05-.01-.07c.04.2.08.4.11.49.32.92.92.98,1.32.14.64-1.33.3-3.5-.48-3.55.02,0,.04-.03.06-.03-.04-.69-.09-1.63-.13-2.32l2.72-1.11.2,12.79-4.79,1.97Zm6.1-1.94c.01.15.02.3.04.41-.02-.09-.03-.22-.04-.41Zm-.01-.32c0-.07-.01-.12-.01-.21-.25.1-.6.23-.86.34-.05-4.18-.02-9.77-.2-13.94l-3.21,1.3-.26-3.79,4.88-1.96c.11,4.79.33,11.18.27,15.97.09-.08.15-.12.2-.14-.46.2-.8,1.3-.8,2.44Zm.74-19.59l-.63-8.82c2.03-.72,4.73-1.71,6.79-2.35-.01-.07-.01-.11-.02-.17.01.1.03.2.05.32.24,1,.69,1.33,1.05.76.71-1.13.37-4.09-.44-4.1.01-.01.04-.03.05-.03-.49-5.71-1.11-13.34-1.86-19.01-2.57.85-6,2-8.53,2.95-1.16-5.53-2.67-12.92-4.03-18.4l5.94-2.15s-.01-.07-.02-.1c.45,1.25,1.23,1.8,1.65,1.1.73-1.24-.25-4.24-1.31-4.11.03-.01.05-.02.07-.03-7.06-26.1-11.97-39.17-27.16-65.16l5.48-1.57c2.7,4.74,6.37,11.02,8.84,15.87.03-.02.07-.02.11-.03-.4.33-.31,1.35.3,2.45.73,1.35,1.78,2.07,2.15,1.45.16-.26.16-.65.07-1.09.54-.13,1.24-.3,1.78-.43,7.77,17.9,7.92,18.25,11.12,28.39,1.58-.28,3.66-.75,5.26-.95,1.35,5.22,3.25,12.16,4.37,17.43-1.44.24-3.38.52-4.8.84l.77,3.57-2.35.57,1.96,10.21c-.05.01-.11.03-.17.04-.21-.82-.59-1.5-1.09-1.41-.65.27-.6,1.86-.37,2.85.23.96.63,1.55,1,1.6-.04,0-.06,0-.11-.01.79,5.16,1.53,12.07,2.13,17.25l3.16-.77.42,8.45s.04,0,.06-.02c-.33.28-.54,1.31-.48,2.46.02.37.06.64.09.81.17.94.52,1.28.82.83.07-.11.13-.26.18-.43.68-.11,1.59-.25,2.27-.37l-.16,7.31c-4.66.8-7,1.21-14.4,3.97Zm13.82,8.54l.83-11.36c1.48-.03,3.47-.01,4.92.22l-1.3,11.49c-1.32-.22-3.11-.38-4.46-.36Zm6.49,1.54c-.55-.36-1.25-.9-1.86-1.12l1.42-12.7c-1.54-.22-3.62-.33-5.17-.26l.17-7.31,2.9-.14.07-5.4c1.17.14,2.75.33,3.87.69-.1,2.61-1.4,6.37-.26,8.72l.45-8.64,1.04.59-.65,10.16c-.22-.14-.53-.35-.75-.49,0,.06,0,.12-.01.18.05-.95.02-1.82-.15-1.95-.18-.06-.41.98-.5,2.33-.07,1.21-.01,2.16.16,2.14.16-.02.31-.67.41-1.48l.73.5c-.56,4.25-1.16,9.95-1.86,14.18Zm3.09-14.09l-.99-1.21.71-11.37-1.2-.7.02-9.08c.69.31,1.49.99,2.11,1.43l-.06,5.64.39.5c-.13,4.45-.67,10.37-.98,14.8Zm1.01-16.03l-.27-.36.04-4.4.27.36-.04,4.4Zm1.04,3.76l-.04-.77.12-7.53.05.79-.13,7.51Z"/>
  <path class="cls-1" d="m12.5,96.09c.49-1.19,1-2.37,1.52-3.55h0s-1.52,3.55-1.52,3.55m-2.25,6.25c-2.12,5.74-3.09,8.47-4.32,12.98,1.01-3.16,2.35-7.14,4.32-12.92v-.06Zm362.01,36.91c1.04,7.76,1.46,14.88,1.89,22.19-.3-8.44-.96-15.69-1.89-22.19ZM254.36,23.95h0s0,0,0,0Zm89.7,40.59s-.02-.01-.02-.02l.06.1s-.03-.05-.04-.08Zm18.5,160.5c.58-2.05,1.04-3.76,1.49-5.76-.42,1.64-.92,3.54-1.49,5.76Zm11.43-40.15c-.21,2.16-.43,4.28-.59,6.13.22-1.85.42-3.97.59-6.13Zm-3-55.59c1.68,9.95,2.53,15,3.03,19.82-.37-4.71-.8-7.52-1.81-13.47l-1.22-6.35Zm3.86,34.73c-.21-6.75-.39-10.77-.82-14.91.26,3.37.48,7.76.82,14.91ZM31.13,218.41c-1.37-4.67-3.32-10.87-4.53-15.59l6.07-1.81c0,.05.01.08.02.12-.13-.86-.02-1.8.6-2.05,1.37-.32,2.37,2.78,1.64,4.02-.12.2-.27.33-.44.37.08-.02.17-.07.27-.15,1.23,3.82,2.87,8.93,4.1,12.77-2.32.7-5.4,1.7-7.74,2.34Zm-3.67-14.53l3.85,13.17,6.54-1.98-3.64-11.6c.1.01.18,0,.25-.01-.5.1-1.11-.43-1.51-1.4.02.05.03.1.05.15-1.66.5-3.88,1.17-5.54,1.67Zm5.43-2c-.07-.19-.12-.41-.16-.62.04.21.09.43.16.62Zm173.01,153.08c2.25-.21,4.8-.5,7.92-.85-3.1.35-5.68.63-7.92.85Zm23.47-5.61c.74-.14,2.42-.51,2.55-.72-.2-.15-3.38.43-4.2.77-.05.03-.1.05-.13.09.04.09.56.04,1.03-.02-.04,0-.09.01-.13.02-5.82,2.43-6.59,2.68-11.65,4.25-1.07.12-2.07.24-3.01.36,1.2-.14,2.47-.28,3.86-.45,5.22-1.56,6.46-2.09,11.69-4.3Zm-92.62.3c1.84.5,3.69.99,5.55,1.43-2.74-.7-5.28-1.41-7.68-2.14.7.23,1.37.46,2.13.7Zm-2.13-.7c-5.85-1.9-9.87-3.23-13.22-4.47,3.4,1.3,7.87,2.88,13.22,4.47Zm-33.87-13.96c10.22,5.16,14.32,7.17,20.65,9.49-4.84-1.85-7.54-3.15-7.6-3.17-3.91-1.91-8.86-5.13-13.05-6.32Zm-38.5-25.69c.33.3.66.58.99.87l.34.18-.93-.84-.4-.21ZM4.73,209.95c.14.7.3,1.4.46,2.12-.16-.7-.31-1.4-.46-2.12Zm0,0c-.12-.54-.23-1.09-.36-1.63.11.53.23,1.09.36,1.63Zm-.36-1.63c-3.5-17.2-3.66-30.16-3.85-45.77-.61,19.69,1.2,33.02,3.85,45.77Zm.98,4.51c-.05-.25-.11-.51-.16-.76.05.25.11.51.16.76Zm201.09-38.61q8,14.26,15.24,27.28l-2.63,1.55s-.02-.04-.03-.07c.1.37.12.75.01,1.18-.5,1.92-3.02,2.47-4.16.9-.69-.98-.55-2.55.77-3.36-.15.09-.28.19-.44.33-5.21-9.09-10.39-18.2-15.57-27.3l2.75-1.59,2.6-1.51c-.77.46-1.82,1.06-2.6,1.51-.01-.05-.03-.13-.03-.19-.07-.43-.1-1.54,1.03-2.39.22-.14.66-.42,1.32-.44,1.97-.05,3.34,2.36,1.75,4.11Zm-1.16.67c-.83.19-1.64-.02-2.25-.61l-1.62.94c4.95,8.74,9.89,17.48,14.83,26.22-.22.06-.38.14-.52.21,1.03-.53,2.09-.29,2.75.37-.02-.01-.02-.02-.04-.04.46-.27,1.08-.63,1.54-.9-8.79-15.72-10.87-19.46-14.69-26.19Zm13.52,27.57s.03.05.04.07c-.01-.02-.02-.05-.04-.07Zm154.29-9.34c-.29,2.2-.26,2.33-.25,2.37.15-.52.6-3.89.6-4.45-.01,0-.02-.01-.02-.02-.08.24-.27,1.67-.33,2.1ZM243,.06c-.7.32.34,1.06,1.27,1.46,1.21.53,2.54.69,2.78.34.41-.6-2.6-2.2-4.05-1.8Zm85.56,290.77l-.05.06.05-.06Zm14.66-24.58c-1.44,2.95-3,5.94-4.78,9.31,1.86-3.35,3.43-6.39,4.78-9.31Zm-1.83,1.59c.91-1.98,1.58-3.53,2.3-5.43-.64,1.52-1.39,3.3-2.3,5.43ZM6.44,155.97c-.17-.24-.28-.95-.28-1.84.02-1.04.23-2.51.6-2.54.28.09.41,1.08.38,2.11.01-.15.01-.3.01-.42,9.13.4,18.63-2.84,35.19-9.81.37,2.33.85,5.43,1.22,7.76-.07.02-.1.03-.15.05,1.11-.36,2.03,1.78,1.42,3.38-.46,1.19-1.48,1.16-2.03-.01.04.08.07.15.13.27-12.11,5.13-15.74,6.18-22.97,8.31l1.36,12.52c-7.49,1.94-10.93,1.89-14.57,1.84-.32-6.49-.34-15.15-.32-21.64,0,0,0,.01.01.01Zm36.28-1.49c-.02-.05-.04-.09-.05-.14.01.04.03.1.05.14Zm-36.05,1.52s.02-.01.03-.01c-.12,6.12.1,14.28.27,20.4q5.76.02,13.69-1.72l-1.26-12.52c7.54-2.07,10.35-3.06,23.14-8.25.02.09.03.13.05.19-.26-1.07-.04-2.39.72-2.79-.08.04-.15.09-.3.2l-1.14-6.64c-21.63,9.2-28.3,9.76-34.78,9.54,0-.09,0-.15.01-.23-.06.86-.21,1.64-.45,1.83Zm-.22-.03s.06.1.06.07c.02,0,.04-.01.07-.02-.05,0-.09.01-.13-.05Zm116.53,100.67c7.15,9.76,7.62,10.3,19.74,24.39l-4.51,2.25c-5.57-6.39-12.78-15.12-18.01-21.79-1.19.11-2-.59-2.3-.91-.65-.67-1.25-2.07-.11-2.91.96-.54,1.9-.15,2.52.26l2.66-1.3Zm18.03,23.97q-6.3-6.99-18.23-22.49l-1.58.77c.47.82.45,1.61-.06,2.16,4.91,6.46,11.87,14.76,17.17,20.9l2.7-1.34Zm23.16,20.27c-3.55,1.78-8.27,4.17-11.84,5.92l-4.19-3.46c4.19-2.09,9.79-4.85,13.96-6.98l2.12,1.88c-.18.05-.33.1-.45.16,1.57-.74,4.09.61,3.66,1.98-.32,1.01-2.1,1.2-3.38.41.04.03.07.05.12.08Zm-.83-.7c-.46-.64-.34-1.36.4-1.76-.13.07-.25.15-.38.27-.39-.35-.9-.8-1.28-1.14-3.67,1.84-8.54,4.3-12.23,6.11l2.44,2.03c3.32-1.66,7.75-3.85,11.05-5.52Zm.58.53c-.23-.16-.44-.35-.57-.53.17.22.35.38.57.53Zm-19.95,14.91c-3.51,1.54-8.18,3.6-11.72,5.09l-6.88-4.96c3.06-1.3,7.15-3.02,10.19-4.36.02.02.05.04.07.07-.49-.58-.57-1.21.14-1.58,1.75-.67,4.32,1.13,3.75,2.2-.09.18-.26.32-.48.41.1-.05.19-.1.3-.17,1.38,1,3.22,2.32,4.62,3.32Zm-8.21-4.05c.14.14.31.27.5.4-.19-.12-.36-.25-.5-.4Zm6.52,3.72l-3.64-2.71c.16-.03.3-.06.4-.1-.65.25-1.74.11-2.66-.44.02.02.04.03.07.05-2.83,1.22-6.58,2.88-9.42,4.05l4.98,3.6c3.08-1.32,7.2-3.07,10.26-4.46Zm-13.07-5.61l-5.99,2.54c-13.84-11.97-14.68-12.69-23.73-22.56l4.47-1.83s.05.06.07.1c-.45-.7-.57-1.54.24-1.94,1.8-.62,4.16,1.75,3.5,2.97-.1.2-.28.34-.5.42.12-.04.22-.11.37-.22,12.98,13.33,13.49,13.84,21.58,20.53Zm-25.16-21.71c.12.18.27.35.46.53-.17-.16-.33-.34-.46-.53Zm23.51,21.3c-13.62-12.11-13.89-12.33-20.72-19.8.14-.01.21-.04.31-.07-.68.2-1.69-.07-2.51-.79.03.03.04.05.07.08-1.09.47-2.53,1.1-3.62,1.57,13.09,13.5,13.6,14.02,21.97,20.92l4.51-1.91Zm-22.6-26.34c-2.97,1.28-6.97,2.89-9.97,4.12-4.13-4.93-9.35-11.75-13.25-16.87-1.04-.05-1.82-.83-2.11-1.17-.63-.72-1.28-2.12-.36-2.77.99-.47,2.08.44,2.5.84,4.53-1.81,10.53-4.34,15.01-6.26l7.97,10.81-6.64,2.89,6.85,8.39Zm-1.63-.61l-6.83-8.44,6.62-2.87-6.43-8.73c-4.22,1.82-9.91,4.15-14.17,5.89.33.72.32,1.33-.02,1.72,3.55,4.9,8.65,11.17,12.43,15.89l8.39-3.46Zm222.3,11.2c.76-1.14,1.57-2.44,2.37-3.79-.82,1.33-1.62,2.6-2.38,3.78h.01Zm-.15.03c.35-.53.66-1.03.64-1.1-.08.02-.68.92-.95,1.3-.32.49-.7,1.09-.69,1.14.1-.06.41-.49.72-.95-.02.03-.03.05-.05.08v.21c.15-.22.33-.5.47-.73l-.04-.1c-.03.05-.07.09-.1.14Zm2.61-4.52c-.63,1.1-1.3,2.24-2.01,3.46.72-1.21,1.38-2.35,2.01-3.46Zm-2.44,5.61c1.57-1.83,3.09-3.65,4.46-5.37-1.39,1.69-2.9,3.52-4.46,5.37Zm16.9-32.33c1.52-3.88,2.24-5.98,3.05-8.78-.95,2.85-1.99,5.85-3.05,8.78Zm5.18-9.51c-.24.72-.48,1.41-.7,2.05.24-.68.48-1.35.7-2.05Zm-.74-3.74s.08-.06.14-.13c.58-.7,1.34-3.61.8-3.56-.38.16-.81,1.45-1,2.28-.1.49-.15.92-.13,1.17.01.06.03.16.07.21h-.01c-.5,1.82-.89,3.23-1.26,4.51.53-1.59,1.04-3.13,1.5-4.57-.03.03-.08.06-.11.09Zm3.64,8.81c-1.52,2.92-3.41,6.33-6.11,11.17,2.77-4.82,4.55-8.04,6.11-11.17Zm-7.14,12.97h-.01c-.14.15-.75,1.14-1.25,1.93-1,1.63-1,1.7-1.01,1.73.28-.31,1.91-2.89,2.22-3.55,0,.02-.01.04-.02.05.39-.69.74-1.32,1.1-1.96-.34.58-.66,1.16-1.03,1.79h0Zm-25.91,32.63c.52-.5,1.12-1.1,1.71-1.7-.49.49-.98.98-1.51,1.49-.07.08-.13.14-.2.21Zm-1.05,1.01c.38-.37.81-.79,1.25-1.22.18-.19.35-.37.53-.55-.57.56-1.15,1.15-1.78,1.77Zm41.65-206.16l2.29.95.43,1.16-2.55-1.02-5.28-12.72h.01c-.28-.25-.73-.92-1.15-1.75-.49-.95-1.03-2.34-.65-2.31.68.27,2.47,3.94,2.03,4.16.02-.01.03-.02.04-.03l4.83,11.56Zm-4.88-11.51s0-.01.01-.01c-.03.01-.08-.03-.12-.05.03.01.06.05.11.06Zm19.39,110.41c-.68,3.98-1.65,8.51-3.22,15.74,1.63-7.2,2.56-11.51,3.22-15.74Zm-17.59,55.2l.64-1.36-.65,1.39-.1.21-.41.82-.57,1.11.43-.84-3.6,6.7-.53.95-.6,1.05.64-1.13,4.19-7.78c.47-1.04,1-2.47,1.38-3.54l-1.33,2.74-.57,1.57-.46.84.49-1.33-4.17,7.83-.63,1.37,2.22-4.06-2.31,4.24-.62,1.06-3.41,5.53c-.53.86-1.22,2.01-1.78,2.86l-.68,1.02c.54-.85,1.28-1.97,1.8-2.84-1.6,2.45-3.67,5.34-5.66,8.08.63-.8,1.23-1.6,1.81-2.35l-1.54,2.2.23-.33c-.07.12-.16.23-.24.35l-.03.04c-.14.19-.28.4-.43.59-.05.07-.1.14-.16.21-.02.03-.04.07-.07.1-.01.01-.01.02-.02.03-.05.06-.1.14-.16.21l.2-.27c.42-.59.97-1.35,1.38-1.94-.52.65-1.06,1.34-1.6,2.03l-.23.34c-.15.21-.33.46-.47.67l-.12.18-.63.9.52-.75-.63.85-.78,1.08c.22-.33.49-.68.72-1.02-.17.21-.38.46-.55.68.21-.28.48-.6.68-.87.04-.05.08-.1.12-.15l-.07.1.65-.88.2-.27-.1.15.28-.43-.18.27.31-.47c.07-.09.13-.18.2-.27-.03.04-.07.08-.1.12l-.1.15c-.39.53-.72,1.02-1.09,1.53l.74-1.11s.04-.04.06-.07c-.91,1.14-1.85,2.31-2.83,3.5-.62.83-1.21,1.63-1.78,2.36,1.05-1.28,2.05-2.49,3-3.65-1.16,1.48-2.42,3.02-3.75,4.62-1.08,1.35-2.14,2.62-3.35,4.01.28-.35.58-.71.87-1.07-.53.62-1.04,1.23-1.56,1.84.22-.26.47-.52.68-.77-1.28,1.57-2.53,2.98-3.91,4.48-.36.4-.73.83-1.07,1.21l-.65.68c.23-.26.51-.58.75-.85-.27.28-.53.57-.81.86-.22.24-.45.51-.66.75l-1.16,1.19c.3-.32.6-.66.9-.99-.14.13-.27.27-.42.43-.02.02-.04.04-.06.06.01-.01.02-.02.04-.03-.01,0-.02.01-.02.01-.02.03-.05.06-.08.09-.01.01-.02.03-.04.04.01,0,.02-.02.03-.03-.67.72-1.99,2.08-2.77,2.84.13-.13.27-.27.41-.42-.03.03-.06.07-.1.1.11-.1.2-.2.31-.31.33-.33.64-.64.95-.97.42-.43.83-.86,1.25-1.29.01-.02.02-.03.04-.05-.41.42-.84.86-1.29,1.31-.07.07-.15.17-.22.24.06-.06.13-.14.19-.21-.68.69-1.41,1.42-2.2,2.21,1.25-1.32,2.42-2.54,3.46-3.64.26-.31.54-.62.76-.91l5.58-6.9c.02-.07.05-.18.1-.25.02-.03.05-.07.07-.1-.38.51-.71.96-.81,1.04.01-.02.01-.07.94-1.37.97-1.36,1.06-1.43,1.09-1.45h-.01s2.07-3.06,2.07-3.06c-.08-.21-.36-.39-.53-.53l2.25-4.04h-.4c-1.35,2.5-3.13,5.44-4.87,8.24,1.68-2.78,3.37-5.79,4.76-8.25l-.28.02,3.1-6.94.41-.08c1.89-4.78,4.05-11.28,5.63-16.17l-1.09.35c-4.57,16.01-7.24,21.45-12.43,30.39,6.73-11.75,8.54-17.93,12.39-31.21l1.63-.52c-1.59,5.21-4.05,12.05-5.97,17.15.5-.08,1.17-.08,1.67-.1l-1.56,3.07.36.11,3.05-5.97-.79-.04c1.63-4.05,2.79-6.94,3.68-9.22-1.07,2.95-2.16,5.81-3.15,8.32l.7.03c.5-1.07.93-1.98,1.31-2.83-.38.88-.77,1.82-1.21,2.84l.2.03c3.87-8.91,5.41-12.46,6.62-15.85-2.62,7.63-3.6,9.81-6.99,16.79l-.27-.06-3.08,5.98.45.38c.48-.84.89-1.6,1.33-2.39-.42.79-.85,1.61-1.3,2.44.28.51.27.57-.05,2.05l3.39-5.24c-.23.83-.65,1.92-1.01,2.72-.2.26-.38.5-.57.76.33-.72.73-1.67.96-2.41l-2.81,4.27-.13.35-.59.78.08-.18-4.74,6.45,4.66-6.27v.04s-5.52,7.45-5.52,7.45l.16-.25-.18.22-.65.89c.17-.21.36-.42.53-.63-.2.24-.4.48-.6.71l-.04.06.02-.03c-1.51,1.8-2.98,3.55-4.44,5.22.5-.53.97-1.04,1.41-1.53.94-1.07,1.88-2.16,2.82-3.26.83-1.04,1.71-2.16,2.68-3.41-.26.32-.53.63-.78.95.33-.4.65-.79.98-1.2,1.69-2.21,3.69-4.87,6.2-8.22-.01.03-.03.06-.04.08-1.44,2.01-2.64,3.68-3.72,5.16,1.07-1.33,2.11-2.64,3.1-3.91.04-.07.1-.14.15-.21-.03.04-.05.07-.08.11.07-.08.14-.17.2-.25l-.36.52s.06-.08.09-.12c.1-.15.2-.31.32-.46.02-.04.05-.07.07-.1l1.28-1.83c.71-1,1.35-1.9,1.93-2.77l2.71-3.87.5-.9-.8,1.18c.54-.81,1.08-1.64,1.55-2.39l-.58,1.08,3.39-5.54.72-1.54.52-.98c-1.07,1.91-2.18,3.74-3.78,6.24,1.78-3.05,3.99-7.06,7.53-13.48.26-.61.55-1.2.84-1.8.63-1.31,1-2.01,1.07-2.09,0,.1-.32.8-.78,1.79l-.1.35,1.84-3.84c-.35,1.13-.93,2.59-1.38,3.69Zm-18.89,26.02l-4.11,6.86.05.22,2.72-4.3.12.27,1.62-2.67-.4-.39Zm-4.06,7.41l2.31-3.51-.08-.22-2.23,3.47v.26Zm1.02-5.16l2.48-5.39-.25.05-2.42,5.36.19-.02Zm.53-.01l.76-1.5v.02c-.01.05,0,.05.01.06-.06-.14.36-1.06.44-1.25.32-.67.84-1.7,1.05-1.77.13.04-.06.53-.34,1.11l.56.05,1.12-2.21c-.46-.03-1.06.05-1.51.08l-2.52,5.4h.43Zm.08.01l.57.12,1.38-2.55c-.16-.02-.37-.04-.53-.06.01-.02.02-.04.03-.05.04-.08.08-.17.12-.25-.35.67-.73,1.3-.85,1.37h.01l-.73,1.42Zm.7-1.41s0,.01-.01.01t.01-.01Zm-2.4,5.97l4.07-6.85-.34-.12-1.87,3.38-.58-.16-1.82,3.29c.19.07.39.32.54.47Zm-3.34,5.04l-.05.21,2.92-4.16-.03-.23c-.64.95-1.51,2.21-2.15,3.15.01-.01.02-.03.03-.04-.11.2-.44.68-.81,1.2.03-.04.07-.08.09-.13Zm-5.29,7c2.52-2.91,6.9-7.99,6.93-8.03l.68-.86,5.41-7.41q.37-1,.17-2.1l-1.64,2.67c-.01.31.02.73-.05,1.03-.14.2-.28.41-.42.61.67-.99,1.08-1.57,1.18-1.66,0,0,0,.01.01.01-.14.38-1.97,2.99-2.26,3.29,0-.03.01-.08.94-1.44-.02.02-.04.05-.05.08.04-.32.15-.74.11-1.06l-2.33,3.52c-.07.4-.28.91-.43,1.29l1.81-2.5c-.48.83-1.3,1.82-1.86,2.6l-.6,1.07-.68.86.64-1.08c-.28.35-.61.73-.91,1.09.32-.4.67-.81.96-1.19.19-.39.37-.93.5-1.32l-2.98,4.07,3-4.15.02-.27-2.94,4.17-.13.32-.64.87.19-.42-4.99,6.2c-.24.31-.54.65-.83,1.01.05-.05.09-.1.14-.15,1.04-1.19,2.13-2.45,3.26-3.75-1.08,1.27-2.15,2.5-3.18,3.68.33-.35.67-.71.98-1.04Zm1.4-1.5c1.71-1.94,3.48-4.01,5.25-6.1l.19-.3c-1.69,1.95-3.69,4.37-5.65,6.62.07-.07.14-.15.2-.22Zm29.41-42.69c-.15.55-.69,1.37-.69,1.38-.76,1.49-1.39,2.73-1.97,3.86l2.5-4.68.1-.36.06-.2Zm-7.42,14.14l.63-1.03c.51-.9,1.2-2.09,1.68-3l-.62,1.06c-.5.9-1.16,2.1-1.69,2.97Zm6.69-12.03l.02-.05-2.1,3.81,2.08-3.76Zm-21.84,32.57s.03-.04.05-.06c-.02.02-.04.04-.05.06Zm-8.45,9.99s.03-.04.04-.05l-.28.31.24-.25Zm-.76.8l.52-.55-.44.46s-.06.06-.08.09Zm16.05-19.3s.03-.04.05-.06c.23-.34.45-.65.68-1,.23-.32.46-.64.67-.94l1.93-2.77c.47-.68.92-1.35,1.35-2.02.36-.53.7-1.04,1.05-1.56l-.69,1c.79-1.25,1.6-2.56,2.5-4.13-1.75,2.73-4.1,6.26-7.67,11.62.21-.31.43-.6.63-.88l-.51.74Zm-6.84,8.5c-.34.41-.67.81-1.02,1.22.34-.41.68-.81,1.02-1.22Zm28.26-88.56c-1.53.38-3.56.85-5.06,1.31-.06.52-.18,1.02-.39,1.38-.32.57-.68.48-.89-.22-.06-.2-.13-.56-.14-1.08-.02-1.19.32-2.31.73-2.53-.05.03-.1.04-.16.11,0-.8.01-1.88.01-2.69,1.85-.53,4.31-1.25,6.17-1.68l-.28,5.39Zm-.1-4.14c-1.62.43-3.78.97-5.38,1.46v1.52c-.06-.02-.13-.03-.2-.01.37-.08.6.53.66,1.33v-.02c1.42-.39,3.33-.95,4.77-1.26l.15-3.02Zm3.68,10.46c.46.42-.18,3.8-.6,4.18-.22.19-.35-.32-.28-1.24,0-.12.02-.24.03-.37,0,.01-.01.02-.01.03-1.16.13-2.71.26-3.86.48l.4-4.02c1.36-.19,3.18-.48,4.56-.54l-.19,1.48s-.03.01-.04,0Zm-.14,0s-.03-.02-.05.01c.01-.1.03-.22.04-.32-1.19.11-2.79.25-3.97.46l-.17,1.73c1.08-.14,2.51-.38,3.6-.43-.01.02-.01.05-.01.07.14-.75.36-1.37.56-1.53Zm10.6-22.63c.06-.84.08-1.62.03-1.83-.01-.01-.01-.02-.02-.03-.11.17-.23,1.54-.3,2.32-.01.2-.14,2.04-.05,2.2.07-.07.16-.72.24-1.51l.04.19c-.1,1-.24,2.11-.39,3.18.19-1.45.37-2.89.54-4.21-.03-.09-.07-.22-.1-.32Zm-.85,7.74c.15-1.1.28-2.16.42-3.21-.13,1.06-.26,2.13-.42,3.21Zm-2.03,13.45l-.05-.42c2.1-11.52,2.57-18.29,2.57-18.32-.64,5.83-1.91,13.54-2.84,19.33l.09.78c.8-4.37,1.59-9.75,2.26-14.82-.63,4.6-1.4,9.46-2.03,13.45Zm-78.4-36.23l-5.33,2.9c-7.1-16.42-8.19-18.94-14.6-31.76l3.5-1.88s.02.04.02.06c-.23-.92-.01-1.93.87-2.46,1.81-.82,3.53,1.42,2.95,3.16-.12.37-.34.63-.57.83.03-.03.06-.04.1-.08q8.44,17.78,13.05,29.23Zm-4.88,1.28l3.54-1.91c-7.31-17.23-7.75-18.26-12.6-28.14.28-.07.47-.16.67-.29-.79.54-1.94.34-2.69-.68.03.04.03.06.06.1-.74.42-1.74.99-2.49,1.41,8.44,17.5,8.77,18.18,13.51,29.51Zm-11.16-31.16c-.14-.21-.24-.45-.33-.69.08.25.19.48.33.69Zm36.04,11.72c-2.04-5.27-4.72-12.3-6.92-17.5.21-.03.37-.09.52-.17-.69.4-1.69.05-2.32-1-.53-.9-.77-2.53.39-3.2.81-.35,1.61.11,2.11.84.61-.29,1.43-.69,2.04-.99,2.44,6.03,5.68,14.08,7.89,20.18l-3.71,1.83Zm-6.1-17.89c1.96,4.89,4.64,11.39,6.46,16.34l2.18-1.07c-2.07-5.36-4.78-12.53-7.01-17.83l-1.24.6c-.03-.12-.07-.21-.1-.33.19.6.23,1.24.02,1.79-.11.29-.3.5-.51.65.07-.05.13-.08.2-.15Zm.2-2.53c-.04-.1-.1-.2-.16-.31.06.1.12.19.16.31Zm-7.78,49.41c2.12-1.13,4.94-2.63,7.06-3.76l1.58,4.78-8.88,4.74-.78-2.19c.12-.02.19-.11.28-.15-.69.28-1.52.06-2-.85-.47-.85-.57-2.48.67-3.25.86-.42,1.64-.02,2.09.7-.01-.01-.01-.02-.01-.02Zm6.61-2.21l-6.22,3.31h0c.05.4.02.83-.12,1.24-.12.36-.32.61-.53.81.02-.02.05-.02.07-.04.11.33.27.76.39,1.1l7.25-3.88-.84-2.54Zm-53.55-6.46l3.78-2.15c2.64,5.31,6.06,12.44,8.63,17.78,1.48-.26,2.48.99,2.45,2.28-.04,1.85-2.14,3.04-3.55,1.5l-1.4.8c-2.92-6.09-6.91-14.16-9.91-20.21Zm1.6.55c2.69,5.38,6.17,12.6,8.79,18.02l.42-.23,1.28-.73c-.39.21-.9.51-1.28.73-.01-.02-.01-.05-.01-.07-.06-.35-.11-1.24.58-2.01l.05-.05c-2.38-5.02-5.65-11.65-8.09-16.63l-1.74.99Zm4.77,27.53c4.91-2.84,11.48-6.58,16.41-9.4l1.64,3.78c-4.89,2.78-11.39,6.52-16.27,9.32l-1.78-3.7Zm15.92-7.75c-4.32,2.46-10.07,5.77-14.38,8.24l.75,1.58c4.29-2.48,10.03-5.76,14.33-8.21l-.7-1.61Zm-5.87,11.28c2.61,5.86,6.04,13.68,8.6,19.56,1.35-.26,2.22.86,2.15,2.05-.1,1.71-1.99,2.82-3.25,1.41l-1.82,1.07c-2.92-6.52-6.86-15.2-9.84-21.69l4.16-2.41Zm7.69,20.09c-2.41-5.55-5.7-12.93-8.17-18.46l-2.2,1.27c2.69,5.88,6.21,13.75,8.84,19.65l.9-.52s0-.04-.01-.06c-.03-.32-.04-1.11.6-1.83l.04-.05Zm-37.77-13.46c6.81,12.84,11.65,21.95,14.41,27.09l-4.64,2.75q-8.19-14.74-16.11-29.26l2.6-1.54s.02.02.02.04c-.21-.87.09-1.91,1.14-2.58,2.04-1.07,3.75.71,3.14,2.56-.13.41-.38.74-.65,1.01.03-.03.05-.04.08-.07Zm-3.67-.79c.08.24.18.45.32.63-.13-.19-.24-.4-.32-.63Zm16.56,27.52q-6.94-12.89-13.97-26.08c.36-.11.6-.25.84-.46-.91.72-2.25.73-3.04-.22.02.03.03.05.06.08-.45.28-1.04.67-1.49.96,7.39,13.61,9.88,18.19,14.92,27.3l2.67-1.58Zm40.52,78.43l-3.41-1c2.98-1.81,6.96-4.23,9.94-6.04,0,.01.01.01.01.01-.16-.22-.11-.54.27-.79.78-.43,1.69,0,1.52.56-.03.1-.11.19-.2.27.01-.01.03-.01.04-.02.46.32,1.08.73,1.55,1.05-3.25,1.98-6.48,3.98-9.71,5.96Zm-.06-.37c2.73-1.67,6.37-3.9,9.09-5.57l-1.24-.84c.07-.03.11-.07.16-.1-.33.18-.78.23-1.13.07t.02.02c-2.8,1.71-6.52,3.99-9.33,5.7l2.42.73Zm-81.19,34.36l-2.26,1.02c-16.55-1.26-17.9-1.36-31.21-4.52l1.27-.54s.04.01.06.02c-.61-.23-.86-.53-.55-.75.04-.04.1-.07.15-.09,1.46-.54,4.41.19,4.08.8-.03.06-.13.09-.21.14.04-.01.07-.04.11-.03,3.73.48,8.62,1.69,12.3,2.41,4.81.94,11.36,1.29,16.26,1.54Zm-1.57.19c-16.15-1.4-17.12-1.49-27.52-3.95.02,0,.04-.02.06-.03-.56.13-1.43.14-2.29-.01.04.01.06.01.09.02-.17.09-.42.2-.6.3,16.32,3.39,17.29,3.59,29.01,4.23l1.24-.56Zm-29.89-4.02c-.21-.05-.41-.1-.57-.16.17.07.37.11.57.16Zm7.53,4.74c-2.75,1.05-6.43,2.44-9.22,3.39l-5.46-.86c2.47-.86,5.76-2,8.19-2.94.02,0,.03,0,.04.01-.63-.18-.93-.42-.66-.6.04-.03.1-.05.14-.07,1.36-.47,4.41.07,4.18.58-.14.31-1.48.42-2.77.25.05,0,.08.01.14.02-2.3.84-5.35,2-7.67,2.78l3.22.52c2.47-.89,5.78-2.08,8.23-3.03l-1.73-.28q.73-.15,3.36.24Zm-6.3-.38c.17.04.37.08.56.11-.2-.04-.39-.07-.56-.11Zm31.83-14.16l2.42.62c-2.66,1.37-6.22,3.16-8.88,4.52l9.4,1.62q-.65.2-10.01-1.31l-1.75.85-4.83-1.08,1.8-.87-2.44-.64-3.3,1.59c5.44,1.16,12.72,2.63,18.23,3.39l2.24-1.11s.05,0,.08.01c-.56-.12-.82-.34-.58-.56.05-.05.12-.09.19-.13,1.16-.56,4.18-.41,3.91.2-.17.36-1.53.64-2.77.58h.08c-.81.42-1.9.98-2.73,1.38-6.11-.91-14.24-2.32-20.26-3.72l4.57-2.21,3.4.91c2.31-1.13,5.35-2.69,7.64-3.85h.02c-.54-.24-.66-.61-.19-.91.02-.01.06-.03.09-.05,1.49-.68,4.09-.06,3.75.66-.05.11-.18.21-.36.29.12-.06.21-.12.27-.18Zm3.04,7.6c.15.02.33.04.53.06-.19-.01-.38-.03-.53-.06Zm-11.09-2.37l-2.82-.64-1.17.57,2.84.64,1.15-.57Zm8.9-4.5c-.46-.12-1.06-.27-1.51-.4.1-.03.15-.06.22-.09-.56.23-1.45.32-2.3.18.03,0,.04.01.08.02-2.27,1.17-5.32,2.68-7.6,3.82l2.82.66c2.49-1.24,5.8-2.94,8.28-4.2Zm9.43-15l-7,3.82,5.43,2.2-6.3,3.39c-.22-.12-.39-.19-.81-.3,1.68-.91,3.91-2.13,5.58-3.04l-4.61-1.87c-.56.31-1.3.7-1.85,1-.01-.01-.03-.02-.04-.02-.05-.04-.11-.05-.16-.08.44.21.69.52.56.85-.25.64-1.93.92-3.15.51-.93-.32-1.16-.87-.65-1.29-.03.02-.09.04-.12.07l-3.7-1.67,3.58-1.91-1.41-.7-6.99,3.71c3.27,1.35,7.57,3.3,10.89,4.5-.12.04-.17.07-.25.1,1.46-.62,3.82.04,3.54.8-.22.6-1.85.89-3.12.54-1.01-.27-1.3-.86-.62-1.25-.1.05-.16.11-.22.16-3.56-1.44-8.35-3.27-11.83-4.89l8.49-4.51,2.26,1.14,7.24-3.95,5.27,2.69Zm-8.56,3.84l-3.84-1.76-2.83,1.52c.84.38,1.97.89,2.81,1.26-.04.01-.04.03-.08.04.81-.26,1.88-.16,2.59.13-.21-.09-.43-.16-.52-.18l1.86-1.01Zm7.03-3.82l-3.66-1.85-6.48,3.52,3.82,1.78,6.32-3.45ZM21.56,216.83c-1.53-6.03-3.55-14.08-4.78-20.17l2.19-.38c1.19,5.17,2.7,12.06,4.08,17.18-.12-.04-.19-.05-.26-.04,1.06-.13,2.29,3.32,1.51,4.26-.38.46-1.07-.15-1.55-1.27.03.07.04.14.07.21-.38.06-.87.14-1.25.2Zm-4.11-19.03c1.23,5.34,2.8,12.48,4.24,17.77l.72-.12c.02.08.05.13.07.2-.26-1.04-.24-2.08.27-2.22-.05.02-.11.04-.18.1-1.17-4.79-2.85-11.14-3.84-15.96l-1.29.22Zm38.33,57.92c-9.74,2.83-10.11,2.94-14.67,3.76l-2.59-4.88c3.95-.87,9.18-2.19,13.06-3.29.09.23.21.46.37.7-.58-.94-.91-2.33-.04-2.69,1.6-.36,3.35,2.79,2.58,3.89-.1.15-.25.23-.43.27.13-.03.23-.08.34-.16.42.72.97,1.68,1.38,2.39Zm-1.29-.92l-.72-1.29c.07.01.11-.01.16-.01-.54.02-1.26-.45-1.84-1.27.05.07.08.13.14.21-3.75,1.05-8.78,2.36-12.58,3.19l1.39,2.62c4.06-.93,9.44-2.31,13.45-3.46Zm33.91,66.87c-13.71-10.93-14.26-11.52-28.43-26.71l1.33-.13c13.11,14.3,13.73,14.8,29.62,27.62-.18.03-.43.08-.62.12.44.28.61.43.92.67l1.17-.15q-16.41-12.99-31.41-29.31l-2.35.23c22.39,24.81,29.72,27.65,29.77,27.66Zm13.48,9.34s.02.02.04.03c-.66-.47-.96-.87-.65-.96.02-.01.04-.02.06-.02,1.24-.06,4.25,1.82,3.94,2.23-.04.05-.15.07-.28.07.1,0,.17-.02.28-.07,5.95,3.19,9.74,5.23,12.57,6.69-4.59-2.22-9.2-4.56-13.04-6.64.05.01.06.01.1.01-.47-.04-1.29-.34-2.12-.78.05.03.07.04.12.07-.22.02-.54.05-.77.08,11.04,6.04,14.7,8.05,18.79,9.84-9.78-4.26-11.94-5.44-20.27-10.43l1.23-.12Zm.08.06c.17.12.38.24.62.39-.22-.13-.44-.26-.62-.39Zm25.78,13.26c-2.74-1.08-4.68-1.84-6.5-2.63,2.03.89,4.37,1.89,7.18,3.1l2.13-.26c-2.44-.94-4.21-1.63-5.83-2.3,1.49.68,2.94,1.34,4.29,1.94l-1.27.15Zm-6.5-2.63c-.1-.04-.21-.09-.32-.14.11.05.21.09.32.14Zm-3.4-2.72c2.84,1.46,4.74,2.36,6.88,3.26-2.23-1.03-4.54-2.13-6.88-3.26ZM32.88,132.26c-.21-6.16-.44-14.38-.39-20.55l1.59-.61s0,.07-.01.11c.09-.77.36-1.6.85-1.84.94-.26,1.13,2.12.49,3.34-.1.18-.2.32-.32.42t.03-.02c.19,5.38.46,12.55.83,17.92l-3.08,1.23Zm1.89-19c.08-.01.17-.04.25-.09-.08.06-.16.08-.25.09Zm-.71-1.39c-.01-.17-.01-.36.01-.55-.02.19-.02.38-.01.55Zm-1.13.74c.06,5.49.14,12.83.42,18.32l1.98-.79c-.23-5.06-.59-11.81-.65-16.88h.02c-.21-.03-.42-.25-.54-.67-.06-.2-.08-.39-.09-.54v.11c-.34.13-.79.32-1.14.45Zm-30.66,19.46l-.08-1.05c1.67-6.87,4.04-15.99,6.12-22.75-.37,1.67-.8,3.33-1.24,4.97.56-1.99,1.13-3.9,1.67-5.66l.02-.32c.02-.05.03-.09.05-.13-.24.67-.45,1.23-.52,1.33,0,0-.01-.01-.02-.01.03-.24.36-1.29.65-2.17.23-.67.73-2.08.83-2.13,0,.01-.01.02-.01.03-.04.24-.32,1.13-.62,2.02.01-.04.03-.08.04-.12-.01.15-.02.37-.03.52-1.3,4.29-2.76,9.41-4.11,14.46.73,2.62.78,2.75,2.16,3.88l-.76,3.78c-.01-.05-.03-.05-.03-.06.24.54-.42,4.3-.79,4.33-.15.02-.15-.8.01-1.89,0,.03-.01.06-.01.09q-1.83-2.02-2.15-3.74l1.12-4.65c-.85,3.25-1.65,6.42-2.3,9.25Zm2.46-9.69l-.99,4.11q.96,2.68,2.07,3.54v.04c.18-.82.4-1.48.54-1.44-.01-.01,0-.02-.01-.02-.02,0-.03.02-.05.02.15-.77.36-1.8.51-2.57-1.73-1.92-1.76-1.96-2.07-3.67Zm-2.29,7.67l.04.61c1.04-4.21,2.33-9.26,3.66-14.11-1.28,4.49-2.64,8.95-3.7,13.5ZM175.86,21.2c4.41-2.42,10.31-5.61,14.76-7.99l-3.49-1.72c-4.88,2.61-11.37,6.15-16.23,8.82.39.2.91.48,1.3.68.09-.08.17-.14.28-.21-.8.47-.65,1.28.35,1.78,1.28.64,3.08.37,3.34-.51.31-1.12-2.21-2-3.63-1.29.09-.05.21-.1.39-.15l-.42-.24c4.44-2.43,10.38-5.66,14.83-8.05l1.64.8c-4.21,2.25-9.8,5.29-13.99,7.58.4.15.6.27.86.5Zm34.07,6.12s-.05-.06-.07-.09c.16.25.24.54.15.82-.3.93-2.16,1.07-3.44.26-1.02-.63-1.17-1.55-.37-2.02-.08.04-.16.09-.23.15-4.19-2.7-9.76-6.34-14.06-8.86l3.48-1.84c5.04,3.05,11.71,7.18,16.56,10.52l-2.02,1.06Zm-.6-.63s-.05-.05-.09-.08c.32-.17.73-.4,1.05-.57-4.36-2.88-10.18-6.74-14.7-9.39l-2,1.06c3.96,2.48,9.28,5.73,13.11,8.39-.18.05-.32.09-.44.15.92-.45,2.26-.14,3.07.44Zm.41.38c-.05-.07-.14-.14-.21-.21.07.07.15.13.21.21Zm150.78,189.01h.01c-1.26,6.03-2.99,14.07-4.58,20.02h-.69c1.61-6.74,3.59-15.77,4.8-22.58l.39-.04s0,.04-.01.06c.18-.84.44-1.57.69-1.64.61.11-.15,3.79-.61,4.18Zm-.21-1.76c.03-.23.07-.47.12-.69-.05.24-.09.47-.12.69Zm.02,1.74s.01,0,.02.01c-.12-.17-.15-.77-.06-1.58,0,.05-.01.09-.01.14-.05,0-.1.01-.15.01-1.2,6.12-2.85,14.28-4.37,20.33h.34c1.36-5.66,3.16-13.2,4.24-18.92Zm.17.03c-.05.04-.1.03-.14-.01.02.02.04.03.06.05.02-.01.06-.03.08-.04ZM9.23,131.41c2.93.35,3.35.28,8.36-.44l.99-10.11c-3.36.54-3.5.53-7.12.26l1.13-5.42c2.13.38,2.3.36,6.69-.12l.35-2.28c2.6-.43,2.83-.5,8.52-2.19-.33,5.12-.47,11.95-.61,17.08l1.28-.45.14,5.99c-12.89,4.62-17.45,4.23-21.1,3.92l.47-3.65s.03.08.04.06c.03.02.06.04.09.05,0,0,.01,0,.01-.01-.22.06-.31-.76-.16-1.89.12-1.03.46-2.46.77-2.48.2.1.22.83.14,1.68Zm9.81-11.75c.95-.2,2.2-.49,3.14-.69-.01.01,0,.01-.01.01.14-.74.4-1.33.67-1.55-.03.02-.05-.01-.08.02l.16-1.57-3.5.77-.39,3Zm-.33.06l.41-3.01c-2.98.47-3.05.47-6.59.19l-.63,3.08c2.11.31,2.19.29,6.82-.26Zm-.76,11.18c2.77-.67,6.42-1.71,9.13-2.55.04-4.81.39-11.22.59-16.03-2.35.69-5.52,1.52-7.91,2.04l-.17,1.17,3.81-.84c-.08.79-.19,1.86-.26,2.67-.02-.01-.04.02-.06.01.58.23.5,2.88-.18,3.82-.34.46-.66.24-.78-.52-.03-.22-.03-.43-.03-.6,0,.01-.01.02-.01.03l-3.16.7-.96,10.1Zm-.14,2.29c2.81-.68,6.52-1.75,9.29-2.6v-1.12c-2.75.85-6.43,1.89-9.22,2.58l-.07,1.14Zm-8.74-.61c-.15.78-.36,1.42-.57,1.52.02-.01.04-.03.06-.04l-.32,2.44c6.04.53,9.94-.37,20.19-3.72l-.07-3.75-.81.28.02,2.26c-4.07,1.39-4.3,1.45-10.2,2.88l.14-2.32c-4.26.73-4.58.71-8.44.46Zm84.65,8.94c-.49,1.64-2.33,1.91-3.2.52.02.04.04.08.07.13-3.45,1.84-8.05,4.32-11.52,6.13-1.71-4.97-4.01-11.61-5.63-16.62,3.85-2.04,8.97-4.78,12.81-6.86,1.61,4.14,3.72,9.67,5.38,13.79-.17.04-.31.09-.44.16,1.48-.74,3.05.96,2.52,2.74Zm-3.57-.43s.02.04.02.06c-.15-.88.14-1.87,1-2.36-.14.08-.26.17-.42.32-1.5-3.84-3.51-8.93-4.96-12.78-3.35,1.8-7.81,4.22-11.18,5.99,1.48,4.33,3.4,10.12,4.93,14.42,3.18-1.7,7.44-3.95,10.61-5.66Zm.28.8c-.11-.21-.2-.44-.24-.68.05.25.13.48.24.68Zm131.55-75.91c-.44,1.22-2.31,1.41-3.54.39.04.04.06.07.11.11-2.17,1.19-5.06,2.78-7.22,3.98l-5.38-6.26c-5.63,3.14-13.1,7.38-18.71,10.56l-2.08-2.55c.28-.08.49-.19.68-.33-.81.56-2.13.56-3-.21-.86-.76-1.03-2.07.2-2.86,1.17-.6,2.41-.2,3.07.56-.15-.18-.31-.32-.41-.39,4.87-2.77,11.38-6.43,16.27-9.18l-2.27-2.41,9.01-4.98c3.07,3.26,7.22,7.55,10.19,10.89-.21.05-.38.11-.52.19,1.84-.96,4.13.98,3.58,2.48Zm-16.81-2.66l-2.42-2.67c-4.89,2.74-11.42,6.39-16.33,9.13-.06-.12-.13-.2-.2-.3.33.45.48,1,.29,1.53-.1.32-.31.56-.54.75.05-.04.11-.07.16-.13l1.36,1.65c5.29-3.01,12.36-6.99,17.67-9.97Zm6.35,5.71l6.27-3.45c-.39-.77-.18-1.63.6-2.08-.14.07-.26.16-.4.3-2.8-3.02-6.47-7.13-9.35-10.08l-7.23,3.99,1.49,1.59,3.4-1.88,4.03,4.36-3.44,1.9-.78-.87,2.51-1.38-2.44-2.66-2.49,1.37,2.42,2.67.78.87,4.64,5.35Zm6.79-2.78c-.2-.19-.38-.4-.49-.62.13.25.29.44.49.62Zm89.16,137.02c-.12.37-.32.64-.53.84.02-.02.04-.03.06-.05.14.47.32,1.1.46,1.57-3.53,1.93-8.24,4.52-11.76,6.48l-1.34-3.89c3.03-1.69,7.08-3.94,10.13-5.61,0,.04.01.06.02.1-.1-.82.12-1.81.95-2.31,1.48-.68,2.56,1.26,2.01,2.86Zm-1.24,1.22c.26-.05.45-.16.65-.33-.68.56-1.62.4-2.13-.59.01.01.02.03.02.04-2.76,1.56-6.45,3.61-9.22,5.17l.63,1.81c3.05-1.69,7.12-3.95,10.18-5.62l-.14-.49Zm-1.53-1.05c-.08-.18-.14-.4-.17-.62.04.25.1.46.17.62Zm2.93-18.64c1.54-.68,2.67,1.54,2.02,3.14-.14.34-.33.58-.55.75.05-.04.09-.06.14-.1,1.18,4.18,2.81,9.76,3.91,13.97l-2.95,1.57c-1.42-4.92-3.32-11.49-4.85-16.38l1.32-.71c0,.05.01.08.02.12-.11-.85.1-1.85.94-2.36Zm-.67,3.21c.02.05.03.09.06.14-.15.08-.37.19-.52.27,1.26,4.26,2.99,9.93,4.17,14.22l1.45-.78c-1.1-3.86-2.49-9.02-3.66-12.87.23-.04.41-.12.57-.25-.67.48-1.58.23-2.08-.73Zm-.07-.16c-.07-.17-.14-.38-.17-.59.03.21.09.41.17.59Zm-3.59-19.22c-.13.35-.33.59-.55.78.04-.04.09-.06.14-.11.37,1.04.85,2.42,1.22,3.46-3.53,1.88-8.24,4.39-11.76,6.31l-2.34-5.95,10.02-5.38s.02.05.03.07c-.15-.86.04-1.88.92-2.4,1.63-.72,2.95,1.55,2.32,3.22Zm-2.91.1s.01.04.02.07c-2.72,1.49-6.35,3.46-9.07,4.94l1.46,3.74c3.03-1.63,7.06-3.81,10.1-5.42l-.84-2.33c.24-.05.43-.13.6-.26-.71.5-1.7.25-2.27-.74Zm-212.3,152.89h-.03c-.47.08.07.79,1.16,1.55,1.15.8,2.41,1.29,2.63,1.04.45-.49-2.73-2.67-3.76-2.58Z"/>
</svg>