<?xml version="1.0" encoding="UTF-8"?>
<svg id="Camada_1" data-name="Camada 1" xmlns="http://www.w3.org/2000/svg" viewBox="0 0 482.76 255.53">
  <defs>
    <style>
      .cls-1 {
        fill: #fff;
      }
    </style>
  </defs>
  <path class="cls-1" d="m168.46,52.28h85.89V0L0,.15v255.37h254.37V71h-85.91v-18.72Zm68.04,194.28c-.03-.65-.07-1.23-.11-2.01h3.02c.03.64.06,1.22.1,2.01h-3.01Zm-1.88-3.21c.38-.69.57-1.39.8-1.41,1.58-.1,3.18-.1,4.76,0,.23.01.42.72.8,1.41h-6.36Zm-4.12-24.18c3.96-3.86,10.19-4.16,14.48-.7,4.36,3.53,5.38,9.84,2.27,14.53-1.53,2.31-3.14,4.58-4.82,6.79-.42.56-1.22,1.11-1.89,1.16-2.13.15-4.27.05-5.87.05-1.87-2.67-3.36-4.99-5.04-7.16-3.49-4.5-3.17-10.73.87-14.67Zm-26.22,25.49c-7.08-4.25-9.42-13.62-5.2-20.66,4.42-7.37,13.55-9.55,21.33-4.84-.79,1.45-1.5,2.76-2.3,4.25-3.35-1.53-6.65-2.46-10.1-.77-2.16,1.06-3.84,2.6-4.89,4.78-2.06,4.27-.78,9.42,3.04,12.25,4.5,3.33,9.13,2.58,14.77-2.59,1.15,1,2.34,2.03,3.51,3.05-3.6,6.35-13.11,8.76-20.14,4.54Zm-35.75-147.42l55.52-.22v18.19l-36.65.09v72.32h-18.87v-90.38Z"/>
  <path class="cls-1" d="m314.32,71.1c2.41,0,4.84.19,7.22.53,24.22,3.49,44.68,26.57,41.07,54.76-3.13,24.42-23.7,42.48-48.3,42.73l-28.56-.2v-18.25h-18.66v37.15l43.39-.02c3.31-.01,6.63-.11,9.93-.41,17.49-1.58,32.2-9.08,43.81-22.04,14.49-16.19,19.97-35.35,16.36-56.82-5.6-33.35-34.37-55.75-65.37-56.13l-48.43.2.44,18.46c1.35,0,47.1.02,47.1.02Z"/>
  <path class="cls-1" d="m482.01,141.03c-1.8-9.87-7.49-17.3-16.04-22.5-7.54-4.59-15.93-6.77-24.45-8.62-6.3-1.37-12.62-2.66-18.83-4.36-3.24-.88-6.43-2.27-9.36-3.94-5.52-3.14-7.82-8.11-7.22-14.46.5-5.28,3.19-9.23,7.29-12.33,4.75-3.59,10.25-5.03,16.09-5.23,5.45-.18,10.65,1.12,15.75,2.93l3.81,1.25,5.77-17.37c-4.87-2.19-9.68-3.53-14.63-4.34-8.86-1.45-17.72-1.69-26.26,1.5-14.9,5.57-24.8,15.62-26.59,32.01-1.26,11.51,2.45,21.4,11.4,29.01,5.42,4.61,11.72,7.6,18.59,9.28,7.91,1.94,15.89,3.57,23.82,5.44,5.16,1.22,10.12,3.01,14.69,5.78,5.84,3.54,8.53,8.58,7.98,15.51-.86,10.73-6.84,17.59-17.39,19.55-6.02,1.12-11.97.59-17.84-.86-11.61-2.88-21.45-8.83-29.79-17.34l-2.82-2.66-12.59,14.52,8.43,7.11c10.84,8.58,22.88,14.72,36.56,17.23,10.65,1.96,21.07,1.07,31.01-3.48,18.29-8.36,25.91-25.57,22.62-43.64Z"/>
  <path class="cls-1" d="m287.09,238.16c-.77-1.22-1.26-1.93-1.69-2.67-1.44-2.48-2.83-4.98-4.28-7.45-1.38-2.36-4.3-2.36-5.69,0-1.63,2.78-3.2,5.59-4.82,8.38-.28.48-.7.87-1.23,1.52-1.98-7.02-3.87-13.71-5.76-20.41h-5.31c2.71,9.72,5.37,19.24,8.04,28.78.76.06,1.29.06,1.81.15,1.93.32,3.12-.41,4.01-2.21,1.3-2.64,2.89-5.15,4.37-7.71.51-.88,1.04-1.75,1.76-2.97,2.12,3.67,4.14,6.84,5.8,10.18,1.07,2.17,2.45,3.14,4.81,2.7.35-.06.7-.09,1.3-.16,2.65-9.49,5.32-19.03,8.03-28.74h-5.34c-1.91,6.77-3.78,13.43-5.81,20.62Z"/>
  <path class="cls-1" d="m460.64,228.77c0-.69-.11-1.38-.17-2.2h-13.99v4.95h8.95c0,1.95-.06,3.63.02,5.31.07,1.32-.49,2.16-1.51,2.91-3.76,2.77-8.77,2.59-12.4-.5-3.54-3.02-4.48-8.12-2.27-12.21,2.22-4.11,6.98-6.15,11.41-4.87.93.27,1.83.59,2.86.92.98-1.36,1.89-2.63,2.8-3.91-2.95-1.82-4.43-2.29-7.56-2.46-6.64-.37-12.68,3.56-14.91,9.69-2.3,6.31-.27,13.34,5.01,17.35,5.19,3.95,12.87,4.06,18.08.23,2.41-1.76,4.11-3.8,3.74-7.16-.29-2.65-.05-5.37-.07-8.05Z"/>
  <path class="cls-1" d="m314.69,216.64c-8.38.04-15.03,6.66-15.07,15-.04,8.36,6.87,15.25,15.22,15.18,8.43-.08,15.16-6.93,15.06-15.33-.11-8.33-6.82-14.89-15.21-14.85Zm.12,25.03c-5.54.02-10.14-4.61-10.04-10.11.09-5.41,4.64-9.84,10.07-9.81,5.44.03,9.86,4.5,9.86,9.97,0,5.49-4.41,9.93-9.88,9.95Z"/>
  <path class="cls-1" d="m423,223.58c0,1.88.07,3.77-.02,5.64-.09,1.87.38,3.8-.39,5.95-.71-.98-1.24-1.69-1.74-2.43-3.07-4.52-6.18-9.01-9.16-13.59-.9-1.38-1.92-2.01-3.52-1.77-.52.08-1.06.07-1.73.11-.61,4.39-.39,27.02.3,28.98,1.4-.28,2.92.36,4.47-.49v-5.92c0-1.88-.03-3.76,0-5.65.03-1.88-.14-3.79.18-6.25.9,1.27,1.43,1.98,1.92,2.71,3.17,4.67,6.36,9.32,9.48,14.03.72,1.08,1.49,1.71,2.83,1.54.77-.1,1.55-.12,2.43-.18v-28.7h-5.07v6.02Z"/>
  <path class="cls-1" d="m385.64,217.9c-1.78-.5-3.29-.42-4.78-.52-1.45-.1-2.53.37-3.57,1.39-2.74,2.7-5.58,5.31-8.39,7.94-.48.45-1.04.83-1.99,1.57v-10.68h-4.98v28.63h5.01c0-3.06-.05-5.92.03-8.77.02-.83.19-1.86.7-2.44,1.21-1.39,2.66-2.56,4.14-3.93.65.83,1.16,1.43,1.62,2.07,2.24,3.13,4.47,6.27,6.7,9.41q2.87,4.04,7.79,3.86c.17,0,.35-.07,1.04-.22-4.55-6.42-8.91-12.58-13.31-18.79,3.48-3.31,6.74-6.41,10-9.51Z"/>
  <path class="cls-1" d="m349.68,229.25c1.87-2.01,2.37-4.42,1.57-6.99-.81-2.59-2.67-4.49-5.35-4.69-3.98-.3-8-.08-12.16-.08v4.74c.83.05,1.52.12,2.22.13,2.24.02,4.48,0,6.72,0,2.65,0,3.77.58,3.84,1.96.08,1.46-1.08,2.08-3.96,2.09-1.52,0-3.04,0-4.57,0h-4.12c-.54,4.03-.38,17.92.16,19.82h4.67v-14.49c1.87-.63,2.92-.1,3.88,1.3,2.74,3.98,5.59,7.89,8.46,11.78.49.66,1.25,1.43,1.97,1.53,1.62.23,3.29.07,5.5.07-3.87-5.42-7.38-10.34-10.93-15.32.79-.69,1.5-1.22,2.1-1.86Z"/>
  <path class="cls-1" d="m392.78,217.61c-.57,4.36-.37,26.85.26,28.75h4.21c.62-1.94.72-26.12.13-28.75h-4.6Z"/>
</svg>